<?xml version="1.0" encoding="utf-8"?>
<svg xmlns="http://www.w3.org/2000/svg" fill="none" height="608" width="1056">
  <g clip-path="url(#a)">
    <path d="M0 0h1056v608H0z" fill="url(#b)"/>
    <path d="M1137 279.5C1137 460.926 875.31 608 552.5 608S-32 460.926-32 279.5 229.69-49 552.5-49 1137 98.075 1137 279.5" fill="url(#c)"/>
    <path d="M841.43-.932c8.612-191.928 363.33-19.348 15.789 526.19C509.68 1070.8 861.276 1293.4 1467.84 1206.74L1008.59-329.789-94.453-219.363C348.492-241.817 817.809-347.577 395.428-84.78-132.548 243.716 818.025 520.67 841.43-.932" fill="url(#d)" opacity=".5"/>
    <path d="M123.287 224.465C219.932-130.769-88.507 159.552-168 61.648L231.852 1399.47l527.284-52.79c-75.06-41.85-408.385-361.172-128.662-782.453 279.723-421.282-581.901-65.135-507.187-339.762" fill="url(#e)" opacity=".3"/>
    <path d="m965.999 101.504-839.26 193.809-2.868-7.472-.012.005q-.213-.593-.44-1.184C112.176 257.374 133.5 276 122.5 235.5c-3.661 1.405 3.181-2.032 0 0-22.267 14.221-62 43.5-49 87.5l161.197 449.753a56 56 0 0 0 .708 1.884q.198.55.409 1.097.312.815.647 1.614l.646 1.682.077-.03c12.358 27.094-28.178 77.632 0 66.815a58 58 0 0 0 4.724-2.06L1089 627.495l-61.24-228.54 26.22-7.276-1.34-1.326-25.3 7.023-19.44-72.565 1.78-.495-2.19-1.006z" fill="#000C2A"/>
    <path d="M201.735 276.132c115.829-73.501 239.329-102.001 406.329-108.876 166.999-6.874 250.406-67.096 410.996-110.125l147.5 550.494-817.32 219.001S85.907 349.633 201.735 276.132" fill="#B5F6FF"/>
    <path d="M519.683 173.434c-124.017 12.772-223.531 42.784-317.948 102.698-75.577 47.958 10.27 267.698 79.063 414.632l819.882-65.484 65.88-17.655-7.32-27.32c-554.17-44.952-805.306-225.141-639.557-406.871" fill="#75EEFF"/>
    <path d="M202.231 275.819C309.232 221.851 438.066 196.426 582 190.501c132.152-5.44 209.493-27.531 315.595-57.836 27.977-7.991 57.955-16.553 91.464-25.532l155.411 506.414 22.09-5.92-147.5-550.494c-56.445 15.124-103.354 32.372-147.71 48.681-81.839 30.092-154.985 56.986-263.287 61.445-166.761 6.865-290.146 35.293-405.832 108.56" fill="#fff"/>
    <mask height="770" id="g" maskUnits="userSpaceOnUse" style="mask-type:alpha" width="965" x="202" y="56">
      <path d="m202.172 275.002 408.662-109.501 408.666-109.5L1167 606.496 349.677 825.497z" fill="url(#f)"/>
    </mask>
    <g mask="url(#g)">
      <path d="m865.652 603.916-13.745 4.559 7.598 22.907 13.744-4.559z" fill="#1433D6"/>
      <path d="M858.054 581.008 845 584.5l6.907 23.974 13.744-4.559zM793.953 598 780 601.873l6.454 23.255 13.954-3.872z" fill="#0BE1FF"/>
      <path d="M826.953 589 813 592.873l6.454 23.255 13.954-3.872zm-65.977 17.895-13.954 3.873 6.455 23.255 13.953-3.873zm151.679-24.214L907 567.674l118.02-32.757 10.64 13.264z" fill="#0069FF"/>
      <path d="m1030.5 550.682-5.13-14.764L1143.97 503l4.19 15.116zm-107 62-5.5-13.5 68.405-18.638 6.095 14.137z" fill="#0BE1FF"/>
      <path d="m992.155 593.681-6.095-14.138 166.27-46.149 4.2 15.115z" fill="#0069FF"/>
      <path d="m314.672 361.521 32.222 86.323S407.442 416 500 396l-92.558-56.383 13.736 49.492-55.895-44.243 15.86 57.142z" fill="#B5F6FF"/>
      <path d="M891.502 292.001s-43.502 20.499-102 28.5l3.5 10.5c53.498-7.001 102.5-28 102.5-28z" fill="#0069FF"/>
      <path clip-rule="evenodd" d="m885.394 275.942-6.166-17.037a622 622 0 0 1-20.034 7.007l6.093 16.836a770 770 0 0 0 20.107-6.806m-80.49 23.585-6.422-16.697a634 634 0 0 1-21.002 4.411l6.445 16.758a625 625 0 0 0 20.979-4.472m14.258-21.761 5.912 16.645 20.51-5.693-5.924-16.678a665 665 0 0 1-20.498 5.726" fill="#0BE1FF" fill-rule="evenodd"/>
      <path d="m456 281.001-5.5-18c-60.5 7.5-154.5 49.5-154.5 49.5l7.5 17.5s100.5-45 152.5-49M852.501 187.5l-6-15s-17.249 10.266-47.5 18c-30.25 7.734-56 11.889-56 11.889l5.5 14.536c20-2.925 35.5-6.493 54.5-10.925 19-4.431 49.5-18.5 49.5-18.5" fill="#0069FF"/>
      <path clip-rule="evenodd" d="M1008.44 229.863 991 178.999l-20 10 18.995 49.864a744 744 0 0 0 18.445-9m-91.904-83.277 23.964 58.413 20.5-9.5-22.388-58.154a4034 4034 0 0 1-22.076 9.241" fill="#0BE1FF" fill-rule="evenodd"/>
      <path clip-rule="evenodd" d="M980.366 243.307 960 192.999l-21 8.499 20.222 50.754c6.688-2.588 13.957-5.7 21.144-8.945m-29.412-111.206c-.379.348-.582.552-.582.552l20.629 56.846 20.5-9-20.552-57.129c-5.323 2.404-12.374 5.47-19.995 8.731" fill="#0069FF" fill-rule="evenodd"/>
      <path d="m1045 325.82-82.767 2.673 17.662 23.685C962.233 397.531 786.5 436.5 635.3 573.04l-55.889-59.936S435.001 589 377.809 654.484c-57.191 65.483-67.629-73.819-67.629-73.819L133.735 685.224l19.978 29.316 149.034-89.279S304.21 760 371.105 700 573.12 558.321 573.12 558.321l56.432 60.425C846.001 437.5 963.733 430 1000 381l18.81 23.507z" fill="#1433D6"/>
      <path d="M712.195 316.73c10.733 39.108-12.197 79.553-51.3 90.406-39.172 10.872-79.742-12.07-90.614-51.242-10.873-39.173 12.069-79.743 51.242-90.615q.559-.155 1.118-.301l-9.037-32.56q-.558.148-1.117.304c-57.154 15.863-90.627 75.054-74.764 132.208s75.055 90.626 132.209 74.763c57.084-15.843 90.544-74.91 74.821-131.999z" fill="#0069FF"/>
      <path d="m744.752 307.694-.058-.21c-15.755-56.766-74.253-90.171-131.044-75.08l9.037 32.56c38.809-10.102 78.685 12.772 89.45 51.556l.058.21z" fill="#0BE1FF"/>
      <path clip-rule="evenodd" d="M617.643 251.299c-46.893 13.015-74.357 61.581-61.341 108.474s61.58 74.357 108.473 61.342 74.357-61.581 61.342-108.474-61.581-74.357-108.474-61.342m-65.94 109.75c-13.72-49.433 15.231-100.628 64.664-114.348 49.433-13.721 100.629 15.231 114.349 64.664s-15.231 100.628-64.664 114.348c-49.433 13.721-100.629-15.231-114.349-64.664" fill="#fff" fill-rule="evenodd"/>
      <path d="M648.988 359.721c13.165-3.653 20.875-17.287 17.221-30.452s-17.288-20.875-30.452-17.221-20.875 17.288-17.221 30.453 17.288 20.874 30.452 17.22" fill="#C6E3FF"/>
      <path d="M644.373 345.349c5.137-1.426 8.146-6.747 6.72-11.884s-6.746-8.146-11.884-6.721c-5.137 1.426-8.146 6.747-6.72 11.884s6.746 8.146 11.884 6.721" fill="#fff"/>
      <path d="M368.604 504.433c-.532.161-.961.743-.957 1.299.003.556.437.876.969.715 2.949-.893 4.413.333 6.145 1.835l.049.042c1.705 1.48 3.688 3.201 7.541 2.034s5.809-4.081 7.489-6.586l.048-.071c1.708-2.545 3.151-4.651 6.1-5.544s4.412.333 6.144 1.835l.049.042c1.705 1.48 3.688 3.201 7.542 2.034s5.808-4.081 7.489-6.586l.047-.071c1.708-2.545 3.151-4.651 6.1-5.544s4.413.333 6.145 1.835l.048.042c1.705 1.48 3.689 3.201 7.542 2.034s5.808-4.081 7.489-6.586l.048-.071c1.707-2.545 3.15-4.651 6.099-5.544s4.413.333 6.145 1.835l.048.042c1.705 1.479 3.689 3.201 7.542 2.034.532-.162.961-.743.958-1.299s-.438-.877-.97-.715c-2.949.893-4.413-.333-6.145-1.836l-.048-.042c-1.705-1.479-3.689-3.2-7.542-2.033s-5.808 4.081-7.489 6.586l-.048.071c-1.707 2.544-3.151 4.651-6.099 5.544s-4.413-.333-6.145-1.836l-.049-.042c-1.705-1.479-3.688-3.2-7.541-2.033s-5.809 4.081-7.489 6.586l-.048.071c-1.708 2.544-3.151 4.651-6.1 5.544s-4.412-.333-6.144-1.836l-.049-.042c-1.705-1.479-3.689-3.2-7.542-2.033s-5.808 4.081-7.489 6.586l-.047.071c-1.708 2.544-3.151 4.651-6.1 5.544s-4.413-.333-6.145-1.836l-.048-.042c-1.705-1.479-3.689-3.2-7.542-2.033m7.962 27.688c-.533.161-.961.743-.958 1.299s.438.876.97.715c2.949-.893 4.412.333 6.145 1.835l.048.042c1.705 1.48 3.689 3.201 7.542 2.034s5.808-4.081 7.489-6.586l.048-.071c1.707-2.545 3.15-4.651 6.099-5.544s4.413.333 6.145 1.835l.048.042c1.705 1.48 3.689 3.201 7.542 2.034s5.808-4.081 7.489-6.586l.048-.071c1.707-2.545 3.151-4.651 6.099-5.544s4.413.333 6.145 1.835l.049.042c1.705 1.48 3.688 3.201 7.541 2.034s5.809-4.081 7.489-6.586l.048-.071c1.708-2.545 3.151-4.651 6.1-5.544s4.412.332 6.144 1.835l.049.042c1.705 1.479 3.688 3.201 7.542 2.034.532-.162.961-.743.957-1.299-.003-.556-.437-.877-.97-.715-2.949.893-4.412-.333-6.144-1.836l-.049-.042c-1.705-1.479-3.688-3.2-7.542-2.033s-5.808 4.081-7.489 6.586l-.047.071c-1.708 2.544-3.151 4.651-6.1 5.544s-4.413-.333-6.145-1.836l-.048-.042c-1.705-1.479-3.689-3.2-7.542-2.033s-5.808 4.081-7.489 6.586l-.048.071c-1.707 2.544-3.15 4.651-6.099 5.544s-4.413-.333-6.145-1.836l-.048-.042c-1.705-1.479-3.689-3.2-7.542-2.033s-5.808 4.081-7.489 6.586l-.048.071c-1.707 2.544-3.151 4.651-6.1 5.544s-4.412-.333-6.144-1.836l-.049-.042c-1.705-1.479-3.688-3.2-7.541-2.033m50.191-29.166c-.148-.516-.712-.794-1.19-.55-2.728 1.397-4.33 3.736-5.741 5.794l-.048.07c-1.719 2.507-3.171 4.583-6.121 5.476s-4.406-.304-6.128-1.77l-.048-.041c-1.695-1.444-3.668-3.124-7.522-1.957-3.855 1.166-5.823 4.038-7.515 6.507l-.048.07c-1.719 2.507-3.172 4.584-6.122 5.476s-4.405-.303-6.128-1.77l-.048-.041c-1.695-1.444-3.667-3.123-7.522-1.957-.532.161-.964.734-.963 1.28 0 .547.432.859.965.698 2.95-.893 4.405.303 6.128 1.77l.048.041c1.695 1.443 3.667 3.123 7.522 1.957s5.823-4.038 7.515-6.507l.048-.07c1.719-2.508 3.171-4.584 6.121-5.477 2.95-.892 4.406.304 6.128 1.77l.048.042c1.696 1.443 3.668 3.123 7.522 1.957s5.823-4.039 7.515-6.507l.048-.07c1.481-2.16 2.764-4 4.977-5.039.437-.206.693-.688.559-1.152m6.771 27.137c.478-.245 1.042.034 1.19.55.134.464-.122.946-.559 1.151-2.213 1.039-3.496 2.879-4.977 5.039l-.048.07c-1.692 2.469-3.66 5.341-7.515 6.507-3.854 1.167-5.826-.513-7.522-1.957l-.048-.041c-1.722-1.466-3.177-2.662-6.128-1.77-2.95.893-4.402 2.969-6.121 5.476l-.048.071c-1.692 2.468-3.66 5.34-7.515 6.507s-5.827-.514-7.522-1.958l-.048-.041c-1.723-1.466-3.178-2.662-6.128-1.77-.533.161-.965-.151-.965-.697-.001-.546.431-1.119.963-1.28 3.855-1.167 5.827.513 7.522 1.957l.048.041c1.723 1.466 3.178 2.662 6.128 1.77 2.95-.893 4.403-2.969 6.122-5.476l.048-.071c1.692-2.468 3.66-5.34 7.515-6.507s5.827.514 7.522 1.958l.048.041c1.722 1.466 3.178 2.662 6.128 1.77 2.95-.893 4.403-2.969 6.121-5.477l.048-.07c1.411-2.058 3.013-4.396 5.741-5.793" fill="#0069FF"/>
    </g>
    <path d="M201.418 265.662q.227.59.439 1.183l.013-.005 187.281 487.882-.126.049a57 57 0 0 0-1.167-3.344c-11.242-29.288-44.099-43.917-73.387-32.674-28.751 11.036-43.376 42.902-33.266 71.773L95.809 307.553l.013-.005a56 56 0 0 1-.466-1.173c-11.242-29.288 3.387-62.145 32.675-73.388 29.288-11.242 62.144 3.386 73.387 32.675m81.019 528.073.652 1.701.078-.03a54 54 0 0 1-.73-1.671" fill="#0BE1FF"/>
    <path d="M201.857 266.845a53 53 0 0 0-.439-1.183c-11.243-29.289-44.099-43.917-73.387-32.675-25.469 9.777-39.853 35.898-35.778 61.804 33.231 68.455 142.591 251.537 257.203 356.524L201.87 266.84z" fill="#75EEFF"/>
    <path d="M201.419 265.662c-11.242-29.289-44.099-43.917-73.387-32.675-16.894 6.485-28.91 20.161-33.897 36.195a56.57 56.57 0 0 1 28.999-24.909c29.288-11.243 59.145 14.386 70.387 43.674l194.338 463.48z" fill="#fff"/>
    <path clip-rule="evenodd" d="M325.247 215.38a41 41 0 0 1 3.053 4.067 43.5 43.5 0 0 1 6.454 23.42 10 10 0 0 1-.833 4.208 393 393 0 0 0 24.192 10.716c111.35 44.994 51.175 137.384-48.351 60.309-10.593-8.203-20.379-18.164-29.233-29.123a9.95 9.95 0 0 1-5.404.898c-11.255-1.31-29.034-7.168-55.983-24.416q5.984-3.542 12.004-6.932c8.667-1.256 19.234-1.972 28.3-.213a285 285 0 0 1-6.421-11.546 619 619 0 0 1 44.084-20.443 299 299 0 0 0 7.185 4.563 153 153 0 0 1-3.167-6.222 632 632 0 0 1 24.12-9.286" fill="#000C2A" fill-rule="evenodd"/>
    <path d="M374.624 285.081c-11.988-1.395-31.363-7.93-61.307-27.83 0 0 30.703-8.796 50.216-2.592a43.6 43.6 0 0 1 19.838 14.065 9.973 9.973 0 0 1-8.747 16.357m42.623-39.881c-8.413-8.682-19.285-25.965-29.918-60.31 0 0 29.37 12.586 40.583 29.706a43.5 43.5 0 0 1 6.467 23.439 9.97 9.97 0 0 1-6.122 9.409 9.99 9.99 0 0 1-11.01-2.244" fill="#000C2A"/>
    <path d="M421.952 247.913a9.98 9.98 0 0 0 5.918-4.231 9.96 9.96 0 0 0 1.61-5.648 43.5 43.5 0 0 0-6.468-23.438c-7.385-11.276-23.212-22.324-33.157-28.553 7.361 3.475 28.841 14.483 38.056 28.553a43.5 43.5 0 0 1 6.468 23.439 9.96 9.96 0 0 1-6.123 9.41 10 10 0 0 1-6.304.468" fill="#fff"/>
    <path d="M325.125 178.918c-35.078-16.694-35.808-81.486-35.808-81.486l36.851 46.925 22.13-57.558s11.906 108.812-23.173 92.119" fill="#000C2A"/>
    <path d="M338.551 178.288c12.489-17.274 8.552-70.927 7.267-85.038l2.481-6.451s8.415 76.907-9.748 91.489m-12.396-33.949-36.838-46.908s.028 2.463.333 6.552l36.359 40.769z" fill="#fff"/>
    <path d="M457.788 252.971c-89.27-36.024-123.912-85.716-130.074-106.059-8.945 27.87 24.723 122.413 81.62 166.417 99.737 77.135 160.041-15.328 48.454-60.358" fill="url(#h)"/>
    <path d="M503.683 337.235c24.121-14.348 20.083-52.406-33.686-78.827 39.5 25.822 47.035 57.982 33.686 78.827M701.668 129.86l-14.282-8.548-14.282-8.549 12.638 10.825 12.637 10.824a31.08 31.08 0 0 1 10.484 18.631 31.1 31.1 0 0 1-4.008 21.001l-8.549 14.279-8.549 14.28 10.825-12.635 10.825-12.636a31.08 31.08 0 0 1 18.634-10.481c7.05-1.15 14.49.118 21.003 4.009l14.282 8.548 14.282 8.548-12.638-10.824-12.637-10.824a31.08 31.08 0 0 1-10.484-18.631 31.1 31.1 0 0 1 4.008-21.001l8.549-14.28 8.549-14.28-10.825 12.636-10.825 12.635a31.08 31.08 0 0 1-18.633 10.482 31.1 31.1 0 0 1-21.004-4.009m-156.316 89.631-.199-1.862-.2-1.861 1.589 1.082 1.589 1.081a21.2 21.2 0 0 0 6.613 2.942c2.336.594 4.787.766 7.219.502l1.906-.214 1.907-.213-1.051 1.558-1.051 1.558a21.2 21.2 0 0 0-2.952 6.596 21.1 21.1 0 0 0-.527 7.218l.201 1.952.2 1.952-1.589-1.082-1.589-1.082a21.3 21.3 0 0 0-6.613-2.942 20.8 20.8 0 0 0-7.219-.502l-1.906.214-1.907.214 1.081-1.619 1.08-1.618a20.8 20.8 0 0 0 2.922-6.626c.577-2.35.747-4.771.497-7.218z" fill="#fff"/>
    <path d="M1260.15 762.603 973.307-56.072l-14.712-6.41 25.002 705.736z" fill="url(#i)"/>
    <path d="m908.22 606.841 34.177-673.53-42.116-18.351-187.385 607.932z" fill="url(#j)"/>
    <path d="M702.46-174.086 255.019 324.712 81 249.972l543.913-457.847z" fill="url(#k)"/>
    <path d="m492.163 426.713 308.532-557.996-29.674-12.929-389.726 522.231z" fill="url(#l)"/>
  </g>
  <defs>
    <linearGradient gradientUnits="userSpaceOnUse" id="b" x1="0" x2="673" y1="622.5" y2="-228.5">
      <stop stop-color="#0069FF"/>
      <stop offset="1" stop-color="#0BE1FF"/>
    </linearGradient>
    <linearGradient gradientUnits="userSpaceOnUse" id="d" x1="1170.82" x2="290.033" y1="-168.183" y2="177.151">
      <stop stop-color="#fff"/>
      <stop offset="1" stop-color="#fff" stop-opacity="0"/>
    </linearGradient>
    <linearGradient gradientUnits="userSpaceOnUse" id="e" x1="24.81" x2="280.11" y1="555.047" y2="11.736">
      <stop stop-color="#fff"/>
      <stop offset="1" stop-color="#fff" stop-opacity="0"/>
    </linearGradient>
    <linearGradient gradientUnits="userSpaceOnUse" id="f" x1="409.593" x2="1008.93" y1="224.788" y2="417.703">
      <stop stop-color="#F4F9FF"/>
      <stop offset=".349" stop-color="#C6E3FF"/>
      <stop offset=".698" stop-color="#5FA3FF"/>
      <stop offset=".982" stop-color="#0069FF"/>
    </linearGradient>
    <linearGradient gradientUnits="userSpaceOnUse" id="h" x1="592.074" x2="415.842" y1="199.424" y2="106.16">
      <stop stop-color="#B5F6FF"/>
      <stop offset=".978" stop-color="#0069FF"/>
    </linearGradient>
    <linearGradient gradientUnits="userSpaceOnUse" id="i" x1="679.21" x2="608.126" y1="-1.543" y2="137.862">
      <stop stop-color="#fff" stop-opacity="0"/>
      <stop offset=".48" stop-color="#fff" stop-opacity=".2"/>
      <stop offset="1" stop-color="#fff" stop-opacity="0"/>
    </linearGradient>
    <linearGradient gradientUnits="userSpaceOnUse" id="j" x1="679.21" x2="608.126" y1="-1.543" y2="137.862">
      <stop stop-color="#fff" stop-opacity="0"/>
      <stop offset=".48" stop-color="#fff" stop-opacity=".2"/>
      <stop offset="1" stop-color="#fff" stop-opacity="0"/>
    </linearGradient>
    <linearGradient gradientUnits="userSpaceOnUse" id="k" x1="679.21" x2="608.126" y1="-1.543" y2="137.862">
      <stop stop-color="#fff" stop-opacity="0"/>
      <stop offset=".48" stop-color="#fff" stop-opacity=".2"/>
      <stop offset="1" stop-color="#fff" stop-opacity="0"/>
    </linearGradient>
    <linearGradient gradientUnits="userSpaceOnUse" id="l" x1="679.21" x2="608.126" y1="-1.543" y2="137.862">
      <stop stop-color="#fff" stop-opacity="0"/>
      <stop offset=".48" stop-color="#fff" stop-opacity=".2"/>
      <stop offset="1" stop-color="#fff" stop-opacity="0"/>
    </linearGradient>
    <radialGradient cx="0" cy="0" gradientTransform="matrix(0 298.5 -533.723 0 553 280)" gradientUnits="userSpaceOnUse" id="c" r="1">
      <stop stop-color="#C6E3FF"/>
      <stop offset="1" stop-color="#C6E3FF" stop-opacity="0"/>
    </radialGradient>
    <clipPath id="a">
      <path d="M0 0h1056v608H0z" fill="#fff"/>
    </clipPath>
  </defs>
</svg>