<?xml version="1.0" encoding="utf-8"?>
<svg xmlns="http://www.w3.org/2000/svg" fill="none" height="216" viewBox="0 0 544 216" width="544">
  <radialGradient cx="0" cy="0" gradientTransform="matrix(-36.32474517 -136.23132888 402.75256882 -107.39001484 426.194 180.231)" gradientUnits="userSpaceOnUse" id="a" r="1">
    <stop offset="0" stop-color="#ff928a"/>
    <stop offset="1" stop-color="#0069ff" stop-opacity="0"/>
  </radialGradient>
  <linearGradient id="b">
    <stop offset="0" stop-color="#fff"/>
    <stop offset="1" stop-color="#fff" stop-opacity="0"/>
  </linearGradient>
  <linearGradient gradientUnits="userSpaceOnUse" href="#b" id="c" x1="496.544" x2="44.9051" y1="294.273" y2="152.208"/>
  <linearGradient gradientUnits="userSpaceOnUse" href="#b" id="d" x1="327.975" x2="326.5" y1="79.5856" y2="11"/>
  <radialGradient cx="0" cy="0" gradientTransform="matrix(-108.79511182 105.3341078 -298.00610044 -307.79780356 420.211 114.042)" gradientUnits="userSpaceOnUse" id="e" r="1">
    <stop offset="0" stop-color="#0069ff"/>
    <stop offset="1" stop-color="#0069ff" stop-opacity="0"/>
  </radialGradient>
  <linearGradient id="f">
    <stop offset="0" stop-color="#000c2a"/>
    <stop offset="1" stop-color="#000c2a" stop-opacity="0"/>
  </linearGradient>
  <linearGradient gradientUnits="userSpaceOnUse" href="#f" id="g" x1="359.062" x2="361.133" y1="128.134" y2="116.929"/>
  <linearGradient gradientUnits="userSpaceOnUse" href="#f" id="h" x1="397.856" x2="479.588" y1="145.648" y2="145.554"/>
  <linearGradient gradientUnits="userSpaceOnUse" href="#f" id="i" x1="151.843" x2="70.1803" y1="151.013" y2="147.66"/>
  <linearGradient gradientUnits="userSpaceOnUse" href="#f" id="j" x1="411.415" x2="484.484" y1="179.17" y2="179.075"/>
  <linearGradient gradientUnits="userSpaceOnUse" href="#f" id="k" x1="376.199" x2="385.05" y1="182.654" y2="225.026"/>
  <linearGradient gradientUnits="userSpaceOnUse" href="#f" id="l" x1="339.76" x2="345.314" y1="191.881" y2="217.87"/>
  <linearGradient gradientUnits="userSpaceOnUse" href="#f" id="m" x1="254.112" x2="253.978" y1="197.617" y2="216.928"/>
  <linearGradient id="n">
    <stop offset="0" stop-color="#000c2a" stop-opacity="0"/>
    <stop offset="1" stop-color="#000c2a"/>
  </linearGradient>
  <linearGradient gradientUnits="userSpaceOnUse" href="#n" id="o" x1="127.237" x2="236.84" y1="204.311" y2="204.217"/>
  <linearGradient gradientUnits="userSpaceOnUse" href="#n" id="p" x1="116.503" x2="196.351" y1="182.654" y2="179.829"/>
  <linearGradient gradientUnits="userSpaceOnUse" id="q" x1="82.9137" x2="233.948" y1="93.0921" y2="130.757">
    <stop offset=".806052" stop-color="#000c2a" stop-opacity="0"/>
    <stop offset="1" stop-color="#000c2a"/>
  </linearGradient>
  <linearGradient gradientUnits="userSpaceOnUse" id="r" x1="48.2624" x2="199.297" y1="103.638" y2="141.302">
    <stop offset=".699908" stop-color="#000c2a" stop-opacity="0"/>
    <stop offset="1" stop-color="#000c2a"/>
  </linearGradient>
  <linearGradient gradientUnits="userSpaceOnUse" id="s" x1="302" x2="302" y1="128.605" y2="198.849">
    <stop offset="0" stop-color="#c6e3ff"/>
    <stop offset="1" stop-color="#c6e3ff" stop-opacity="0"/>
  </linearGradient>
  <linearGradient gradientUnits="userSpaceOnUse" id="t" x1="302.354" x2="302.354" y1="135.182" y2="179.421">
    <stop offset="0" stop-color="#fff5f4"/>
    <stop offset="1" stop-color="#ffe1df"/>
  </linearGradient>
  <linearGradient gradientUnits="userSpaceOnUse" href="#f" id="u" x1="313.299" x2="241.36" y1="163.633" y2="149.697"/>
  <linearGradient gradientUnits="userSpaceOnUse" id="v" x1="442.671" x2="410.301" y1="102.041" y2="185.065">
    <stop offset="0" stop-color="#fff" stop-opacity="0"/>
    <stop offset=".480231" stop-color="#fff" stop-opacity=".2"/>
    <stop offset="1" stop-color="#fff" stop-opacity="0"/>
  </linearGradient>
  <clipPath id="w">
    <path d="m0 0h544v216h-544z"/>
  </clipPath>
  <clipPath id="x">
    <path d="m13.6296-10h576.741v229h-576.741z"/>
  </clipPath>
  <g clip-path="url(#w)">
    <g clip-path="url(#x)">
      <path d="m0 0h576.741v229h-576.741z" fill="url(#a)" transform="translate(13.6296 -10)"/>
      <path d="m115.184 233.389c-88.7667 17.739 7.91 99.245 245.196-38.041 237.286-137.2871 357.059-60.64 345.006 109.415h-735.21v-305.458709c10.1695 120.902709-17.1373 255.590709 85.3101 120.902709 128.0589-168.3601 300.9389 64.971 59.6979 113.182z" fill="url(#c)" opacity=".2"/>
      <path d="m198.058 10.5528c-113.4382 53.2177-33.626-34.7124-70.855-40.5985l470.144-52.4952 11.974 107.2422c-18.223-10.4717-143.812-44.0114-269.061 51.0765-125.249 95.0882-54.504-106.3669-142.202-65.225z" fill="url(#d)" opacity=".2"/>
      <path d="m664.709 190.187c0 38.795-158.259 70.244-353.481 70.244s-353.4813-31.449-353.4813-70.244 158.2593-70.244 353.4813-70.244 353.481 31.449 353.481 70.244z" fill="url(#e)"/>
      <path d="m359.062 133.125 36.157-11.111 106.591-3.766" stroke="url(#g)" stroke-width=".376645"/>
      <path d="m397.856 143.671 11.864-4.143 55.367 16.007 51.224-19.774" stroke="url(#h)" stroke-width=".376645"/>
      <path d="m151.759 152.988-27.284 6.365-24.7342-6.365-52.0121 17.596" stroke="url(#i)" stroke-width=".376645"/>
      <path d="m411.415 173.049 55.179 16.008 51.223-19.774" stroke="url(#j)" stroke-width=".376645"/>
      <path d="m377.329 183.219 83.992 24.292-83.992 32.769" stroke="url(#k)" stroke-width=".376645"/>
      <path d="m335.333 191.881 46.706 15.819-84.559 31.262" stroke="url(#l)" stroke-width=".376645"/>
      <path d="m270.739 194.33-41.385 12.055 57.054 20.586" stroke="url(#m)" stroke-width=".376645"/>
      <path d="m236.84 184.349-159.3202 39.736" stroke="url(#o)" stroke-width=".376645"/>
      <path d="m196.351 174.744-54.425 12.806-52.3536-15.442" stroke="url(#p)" stroke-width=".376645"/>
      <path d="m233.782 131.424-151.0348-37.664" stroke="url(#q)" stroke-width=".376645"/>
      <path d="m199.13 141.97-151.0342-37.664" stroke="url(#r)" stroke-width=".376645"/>
      <path d="m242.302 183.407c0 .364-.282.738-.838 1.032-.547.29-1.316.475-2.175.475-.86 0-1.629-.185-2.176-.475-.556-.294-.838-.668-.838-1.032s.282-.738.838-1.032c.547-.289 1.316-.474 2.176-.474.859 0 1.628.185 2.175.474.556.294.838.668.838 1.032z" stroke="#000c2a" stroke-width=".376645"/>
      <path d="m275.823 193.2c0 .364-.282.738-.837 1.032-.548.29-1.316.475-2.176.475s-1.629-.185-2.176-.475c-.555-.294-.837-.668-.837-1.032s.282-.738.837-1.032c.547-.29 1.316-.475 2.176-.475s1.628.185 2.176.475c.555.294.837.668.837 1.032z" stroke="#000c2a" stroke-width=".376645"/>
      <path d="m336.086 190.94c0 .364-.282.738-.837 1.032-.547.289-1.316.474-2.176.474-.859 0-1.628-.185-2.176-.474-.555-.294-.837-.668-.837-1.032s.282-.738.837-1.032c.548-.29 1.317-.475 2.176-.475.86 0 1.629.185 2.176.475.555.294.837.668.837 1.032z" stroke="#000c2a" stroke-width=".376645"/>
      <path d="m377.894 182.277c0 .364-.282.738-.838 1.032-.547.29-1.316.475-2.175.475-.86 0-1.629-.185-2.176-.475-.556-.294-.837-.668-.837-1.032s.281-.738.837-1.032c.547-.29 1.316-.474 2.176-.474.859 0 1.628.184 2.175.474.556.294.838.668.838 1.032z" stroke="#000c2a" stroke-width=".376645"/>
      <path d="m412.168 172.107c0 .364-.281.738-.837 1.033-.547.289-1.316.474-2.176.474-.859 0-1.628-.185-2.175-.474-.556-.295-.838-.669-.838-1.033 0-.363.282-.737.838-1.032.547-.289 1.316-.474 2.175-.474.86 0 1.629.185 2.176.474.556.295.837.669.837 1.032z" stroke="#000c2a" stroke-width=".376645"/>
      <path d="m398.609 144.613c0 .364-.282.738-.837 1.032-.547.289-1.316.474-2.176.474-.859 0-1.628-.185-2.176-.474-.555-.294-.837-.668-.837-1.032s.282-.738.837-1.032c.548-.29 1.317-.475 2.176-.475.86 0 1.629.185 2.176.475.555.294.837.668.837 1.032z" stroke="#000c2a" stroke-width=".376645"/>
      <path d="m151.046 152.016c.015-.364.313-.726.88-.996.559-.266 1.335-.419 2.194-.382.859.036 1.619.253 2.154.565.542.318.808.703.793 1.067-.015.363-.313.725-.88.996-.559.266-1.335.418-2.194.382s-1.619-.253-2.154-.566c-.543-.317-.808-.703-.793-1.066z" stroke="#000c2a" stroke-width=".376645"/>
      <path d="m359.815 134.067c0 .364-.282.738-.838 1.032-.547.289-1.316.474-2.175.474-.86 0-1.629-.185-2.176-.474-.556-.294-.837-.668-.837-1.032s.281-.738.837-1.032c.547-.29 1.316-.475 2.176-.475.859 0 1.628.185 2.175.475.556.294.838.668.838 1.032z" stroke="#000c2a" stroke-width=".376645"/>
      <path d="m201.624 173.991c0 .364-.282.738-.837 1.032-.548.29-1.316.474-2.176.474s-1.629-.184-2.176-.474c-.555-.294-.837-.668-.837-1.032s.282-.738.837-1.032c.547-.29 1.316-.475 2.176-.475s1.628.185 2.176.475c.555.294.837.668.837 1.032z" stroke="#000c2a" stroke-width=".376645"/>
      <path d="m204.637 142.729c0 .364-.282.738-.837 1.032-.547.29-1.316.475-2.176.475-.859 0-1.628-.185-2.176-.475-.555-.294-.837-.668-.837-1.032s.282-.738.837-1.032c.548-.289 1.317-.474 2.176-.474.86 0 1.629.185 2.176.474.555.294.837.668.837 1.032z" stroke="#000c2a" stroke-width=".376645"/>
      <path d="m239.289 132.183c0 .364-.282.738-.838 1.032-.547.29-1.316.475-2.176.475-.859 0-1.628-.185-2.175-.475-.556-.294-.838-.668-.838-1.032 0-.363.282-.737.838-1.032.547-.289 1.316-.474 2.175-.474.86 0 1.629.185 2.176.474.556.295.838.669.838 1.032z" stroke="#000c2a" stroke-width=".376645"/>
      <path d="m500.786 60.1097s7.188-12.6614-10.093-16.9143c0 0-21.016-6.0218 16.339-15.4331 0 0-23.05 1.4271-33.828 11.9578-1.657 1.6181-3.308 3.2456-5.031 4.7886-2.241 2.0066-5.335 5.5136-6.967 10.6248 0 0-.767 3.3765-2.182-.0722 0 0 .551 5.7471-2.072 6.0239-2.622.2769-3.996-.5574-3.996-.5574l.479 2.9262s5.613.5809 9.795 4.1953c0 0 9.487 8.4806 20.193 5.854l-1.808-3.4246s12.976 8.2417 18.385 4.2302c5.408-4.0115-.64-11.1075-.64-11.1075l10.014 6.4709-.325-2.5674-4.393-2.6864 4.212.9905c-.16-2.6553.414-5.3044 1.563-7.7109l2.234-4.6708-11.874 7.0793z" fill="#ff928a"/>
      <path d="m505.534 57.279c2.017.9821 3.243 2.0206 3.899 3.0628.256-.9049.591-1.7897.999-2.644l2.234-4.6709z" fill="#ffe1df"/>
      <path d="m482.471 33.6618c2.492-.2607 5.06-.3235 7.612-.2457 3.417-1.7047 8.791-3.5986 16.95-5.6541 0 0-13.415.8305-24.562 5.8998z" fill="#ffe1df"/>
      <path d="m495.177 44.7027c-15.03 7.1495 3.654 10.2979 3.654 10.2979 1.221.3005 2.321.6134 3.311.9364.51-3.434-.259-8.2122-6.965-11.2343z" fill="#ffe1df"/>
      <path d="m489.426 53.671c-10.597-6.9236-12.043-17.24-12.044-17.2525-.576.3737-1.136.7632-1.678 1.1686-.009.0062-.019.0124-.029.0225-.542.4054-1.063.8274-1.563 1.2661 0 0 1.13 22.4576 25.492 35.6846.131-.0788.263-.1655.389-.2577 5.408-4.0115-.64-11.1075-.64-11.1075s.677-2.5949-9.93-9.5288z" fill="#000c2a"/>
      <path d="m474.489 64.4309c-1.997-1.9938-3.381-4.5209-3.935-7.2832-1.747-8.6968.891-15.7131.891-15.7131l-.004-.0008c-1.072 1.046-2.154 2.0779-3.268 3.0742-2.241 2.0066-5.335 5.5136-6.967 10.6248 0 0-.767 3.3765-2.182-.0722 0 0 .21 2.2003-.252 3.9415l.841.237c-.009.0799-.013.1606-.018.2414-.047 1.1254.612 2.1535 1.617 2.6616 10.311 5.2222 8.49 9.5994 8.49 9.5994 3.67 1.7064 8.552 3.025 13.718 1.7564l-1.808-3.4247c-2.599-1.4007-5.238-3.7615-7.123-5.6423z" fill="#000c2a"/>
      <path d="m505.953 65.2131c.261 1.0552.722 2.1317 1.46 3.1926l1.958 1.2627-.325-2.5673-3.093-1.8919z" fill="#000c2a"/>
      <path d="m505.84 64.6951 3.025.7138c-.16-2.6554.414-5.3044 1.562-7.7109l2.234-4.6709-4.81 2.8665s-2.911 4.1005-2.015 8.8007z" fill="#000c2a"/>
      <path d="m457.846 60.6998c-.247.2056-.542.3442-.893.3811-.593.0639-1.116.0649-1.58.0374 0 0 6.11 3.4004 2.474-.4224z" fill="#000c2a"/>
      <path d="m463.032 60.6819c.646.135 1.28-.2793 1.415-.9255.135-.6461-.28-1.2794-.926-1.4145-.646-.135-1.279.2793-1.414.9255s.279 1.2795.925 1.4145z" fill="#fff"/>
      <path d="m463.139 60.168c.363.0759.719-.157.795-.52.076-.3631-.157-.7189-.52-.7948s-.719.1569-.795.52.157.7189.52.7948z" fill="#000c2a"/>
      <path d="m463.711 60.0533c.214.0295.399-.0281.413-.1287s-.149-.2061-.363-.2356c-.214-.0296-.399.0281-.413.1287s.148.2061.363.2356z" fill="#fff"/>
      <path d="m468.659 63.4216c.811.5371 3.367 2.3373 4.518 4.4524 0 0 3.314-.1078 3.359-4.5419 0 0-4.441-2.3983-7.265-1.743-.236.0529-.463.1442-.649.2931-.216.1715-.441.4471-.405.8425.026.2872.202.5365.443.693z" fill="#0069ff"/>
      <path clip-rule="evenodd" d="m489.142 44.5598c.515.2215.849.5967.745.8381-.104.2413-.606.2574-1.121.0359s-.848-.5967-.745-.838c.104-.2414.606-.2575 1.121-.036zm1.559 2.6244c.766.3924 1.239 1.0005 1.056 1.3582-.183.3576-.953.3294-1.719-.063-.767-.3924-1.24-1.0005-1.057-1.3582.184-.3576.953-.3294 1.72.063z" fill="#ffbab5" fill-rule="evenodd"/>
      <path d="m500.812 60.0935 9.007-4.1372s-2.041 5.1021-.963 9.4495l.012.0029c-.16-2.6554.414-5.3044 1.562-7.7109l2.235-4.6709z" fill="#fff"/>
      <path d="m508.066 66.5035.902 2.906.406.2625-.325-2.5675z" fill="#fff"/>
      <path d="m490.693 43.1951c16.724 4.1157 10.532 16.1062 10.115 16.8754.083-.4358 1.479-8.5747-2.618-12.0793-4.097-3.5047-4.23-2.7332-6.921-4.0888-1.573-.7921-3.115-1.5687-4.279-2.3706 1.676 1.0826 3.703 1.6633 3.703 1.6633z" fill="#fff"/>
      <path d="m497.438 30.5007c2.66-.8767 5.831-1.7905 9.594-2.7387 0 0-11.462.7096-22.001 4.8209 4.455-1.1539 8.882-1.7622 12.407-2.0822z" fill="#fff"/>
      <path d="m463.333 131.781-5.438-3.133 5.355.992c.128-2.82 1.163-5.429 2.445-7.616l-3.904 1.287 5.196-3.267c2.016-2.789 4.09-4.524 4.09-4.524l-16.69 10.075s9.403-17.104-13.84-22.492c0 0-32.032-8.267 20.11-12.3909 0 0-25.582-3.7577-43.614 8.0503-2.598 1.7036-4.372 4.4076-6.658 6.5116-2.968 2.732-7.05 7.491-9.145 14.367 0 0-.969 4.539-2.924-.059 0 0 .842 7.694-2.671 8.112-3.514.417-5.369-.673-5.369-.673l.694 3.91s7.532.676 13.205 5.444c0 0 12.873 11.197 27.173 7.48l-2.487-4.555s17.548 10.81 24.72 5.338c7.176-5.476-.635-13.864-.635-13.864l13.116 7.475c-1.642-2.189-2.468-4.375-2.731-6.476z" fill="#ff928a"/>
      <path d="m465.823 120.776c-.421-.139-1.188-.396-2.208-.752l7.462-4.505s-2.073 1.736-4.09 4.524z" fill="#ffe1df"/>
      <path d="m422.62 95.6796c17.295-8.0147 38.037-4.9679 38.037-4.9679-11.776.9314-19.259 2.0741-23.787 3.2852-4.618.0649-9.506.5314-14.25 1.6827z" fill="#ffe1df"/>
      <path d="m437.726 102.242c-4.173 4.77 8.745 11.104 18.528 15.027-.233-5.15-3.375-11.307-15.707-14.167 0 0-1.233-.318-2.821-.86z" fill="#ffe1df"/>
      <path d="m443.445 145.57c3.853.912 7.632.987 10.139-.928 2.867-2.186 3.339-4.836 2.88-7.231-30.347-18.635-34.214-41.5384-34.219-41.5517-1.782.8447-3.527 1.8073-5.203 2.907.738 22.9307 18.418 40.1647 26.407 46.8047z" fill="#000c2a"/>
      <path d="m410.319 140.469c4.658 2.513 11.502 5.038 18.896 3.839-21.543-14.484-17.402-40.475-17.402-40.475-.463.499-.936.984-1.433 1.444-2.968 2.733-7.05 7.491-9.145 14.368 0 0-.969 4.539-2.924-.06 0 0 .326 2.992-.277 5.35l1.751.341s2.085 3.425 7.587 6.16c6.156 3.059 2.947 9.033 2.947 9.033z" fill="#000c2a"/>
      <path d="m396.984 127.03c-.354.363-.796.602-1.34.667-.893.108-1.678.115-2.355.068 8.867 3.634 3.699-.734 3.699-.734z" fill="#000c2a"/>
      <path d="m463.333 131.782-4.895-2.821c.049 1.971.766 4.188 2.724 6.504l4.902 2.793c-1.642-2.189-2.468-4.375-2.731-6.476z" fill="#000c2a"/>
      <path d="m461.912 121.054s-3.486 3.175-3.483 7.693l4.817.892c.128-2.819 1.163-5.429 2.445-7.616l-3.904 1.288 5.196-3.268c2.016-2.789 4.09-4.524 4.09-4.524l-9.164 5.53z" fill="#000c2a"/>
      <path d="m404.342 126.354c.864.18 1.712-.374 1.892-1.238.181-.865-.373-1.712-1.238-1.893-.864-.18-1.711.374-1.892 1.238-.181.865.374 1.712 1.238 1.893z" fill="#fff"/>
      <path d="m404.485 125.669c.486.102.963-.21 1.065-.696.101-.487-.211-.963-.697-1.065-.486-.101-.963.21-1.064.697-.102.486.21.962.696 1.064z" fill="#000c2a"/>
      <path d="m403.845 125.104c.267.017.49-.07.498-.196.008-.125-.201-.241-.468-.259-.266-.018-.489.07-.497.196-.009.125.201.241.467.259z" fill="#fff"/>
      <path d="m410.758 130.925c.753 1.068 3.584 3.604 3.466 7.765 0 0 4.191 1.481 6.409-4.031 0 0-4.37-5.16-8.218-5.724-.317-.045-.648-.045-.953.05-.354.11-.771.346-.919.858-.106.37-.009.766.211 1.081z" fill="#0069ff"/>
      <path clip-rule="evenodd" d="m447.65 110.961c.427-.796-.606-2.182-2.308-3.096-1.701-.914-3.427-1.011-3.855-.215-.427.795.606 2.181 2.308 3.096 1.702.914 3.428 1.01 3.855.215zm4.64 3.848c.414-.344.154-1.342-.581-2.229-.736-.888-1.668-1.328-2.083-.985-.415.344-.155 1.342.581 2.229.735.888 1.668 1.328 2.083.985zm-.634 2.178c.517.544.73 1.182.475 1.423-.255.242-.88-.003-1.397-.548-.516-.544-.729-1.182-.474-1.423.254-.242.88.004 1.396.548z" fill="#ffbab5" fill-rule="evenodd"/>
      <path d="m463.332 131.78.002.001-.003-.008c.001.002.001.005.001.007z" fill="#fff"/>
      <path d="m462.958 136.48 3.104 1.769c-1.64-2.187-2.465-4.37-2.73-6.469l-1.197-.689c.013.121.025.247.038.377.146 1.436.338 3.334.785 5.012z" fill="#fff"/>
      <path d="m432.168 92.3411c9.247-1.9129 18.005-1.5697 22.798-1.1316 1.775-.1716 3.67-.3377 5.691-.4975 0 0-13.938-2.0474-28.489 1.6291z" fill="#fff"/>
      <path d="m442.52 103.609c17.266 6.633 11.88 21.906 11.88 21.906l.042-.023c.709-1.382 7.833-16.281-11.922-21.883z" fill="#fff"/>
      <path d="m456.18 124.513 14.898-8.993s-2.074 1.735-4.091 4.524l-.135.085c.795-1.685 1.407-2.42 1.407-2.42z" fill="#fff"/>
      <path d="m463.172 129.626.078.014c.001-.009.001-.018.001-.026z" fill="#fff"/>
      <path d="m463.26 129.457c.163-2.75 1.181-5.294 2.436-7.433l-1.437.474c-1.078 2.156-1.366 5.864-.999 6.959z" fill="#fff"/>
      <path d="m422.227 182.911c15.835.543 28.73-.731 28.802-2.845.073-2.113-12.705-4.267-28.539-4.811-15.835-.543-28.73.731-28.802 2.845-.073 2.113 12.705 4.267 28.539 4.811z" fill="#000c2a"/>
      <path d="m248.143 32.4492s6.35-9.2995-6.7-13.6853c0 0-17.934-6.5251 12.235-5.9989 0 0-14.481-3.57792-25.491 2.2034-1.587.8323-2.758 2.2907-4.184 3.369-1.858 1.4046-4.464 3.9106-6.05 7.745 0 0-.808 2.5553-1.679-.1956 0 0 .056 4.4633-1.984 4.5107-2.039.0475-3.046-.6857-3.046-.6857l.18 2.2839s4.287.8062 7.284 3.8585c0 0 6.769 7.1446 15.189 5.8045l-1.177-2.7536s9.477 7.1837 13.902 4.437c4.426-2.7467.406-7.9976.406-7.9976l7.118 5.0205c-2.241-3.6785-1.002-7.0054.687-9.3438l-2.311.5258 3.166-1.5886c1.312-1.4901 2.599-2.3689 2.599-2.3689z" fill="#ff928a"/>
      <path d="m250.672 31.2395c1.659 2.367 2.03 5.073 1.632 7.824l1.845 1.3018c-2.241-3.6785-1.002-7.0055.687-9.3438l-2.311.5257 3.166-1.5885c1.312-1.4901 2.599-2.3689 2.599-2.3689z" fill="#ffe1df"/>
      <path d="m241.586 18.8119c8.403 2.8771 8.627 7.8138 7.773 10.8921-1.333-1.2973-3.154-2.4539-5.568-3.4097 0 0-18.801-5.5302-2.205-7.4824z" fill="#ffe1df"/>
      <path d="m238.237 13.6742c2.366-.6546 7.038-1.0555 15.444-.9089 0 0-12.204-3.01528-22.723.963 2.433-.1467 4.878-.1518 7.279-.0541z" fill="#ffe1df"/>
      <path d="m248.66 40.39c-12.799-7.192-16.188-22.5744-16.908-26.9438-1.052.3602-2.093.788-3.105 1.2951-.354 11.0716 4.228 21.4879 8.119 26.7526 3.122 1.7307 7.318 3.4205 9.856 1.8477 1.333-.8282 1.897-1.8826 2.038-2.9516z" fill="#000c2a"/>
      <path d="m222.013 38.5453c2.536 1.7021 6.328 3.5319 10.638 3.2523-11.567-9.5115-7.749-24.2083-7.749-24.2083-.295.2609-.593.5131-.904.7504-1.857 1.4046-4.464 3.9107-6.05 7.745 0 0-.807 2.5553-1.678-.1956 0 0 .021 1.7361-.455 3.0578l.984.2915s1.007 2.0809 4.016 3.9596c3.365 2.0958 1.194 5.3504 1.194 5.3504z" fill="#000c2a"/>
      <path d="m215.098 30.089c-.222.1862-.491.3015-.807.309-.521.0096-.971-.0272-1.358-.0917 4.889 2.5777 2.165-.2173 2.165-.2173z" fill="#000c2a"/>
      <path d="m251.812 38.7178 2.334 1.6479c-2.241-3.6785-1.002-7.0055.687-9.3438l-2.311.5257 3.166-1.5885c1.312-1.4901 2.599-2.3689 2.599-2.3689l-6.431 3.0791s-2.562 4.2062-.044 8.0485z" fill="#000c2a"/>
      <path d="m219.448 30.1271c.499.1043.988-.2158 1.093-.715.104-.4992-.216-.9885-.715-1.0928-.499-.1044-.989.2158-1.093.715s.216.9885.715 1.0928z" fill="#fff"/>
      <path d="m219.531 29.7321c.281.0587.556-.1214.615-.4024.059-.2809-.122-.5563-.403-.615s-.556.1214-.615.4024c-.058.2809.122.5563.403.615z" fill="#000c2a"/>
      <path d="m219.156 29.3539c.152.025.285-.0131.297-.085s-.102-.1504-.255-.1754c-.152-.0249-.285.0131-.297.085s.102.1504.255.1754z" fill="#fff"/>
      <path d="m221.782 32.012c-.018.6741-.044 2.1471-.977 4.2841 0 0 1.271 1.9114 3.898.3245 0 0-.207-3.486-1.62-4.9125-.118-.1186-.252-.2201-.408-.2732-.179-.0659-.425-.097-.644.0697-.159.1178-.241.3131-.246.5122z" fill="#0069ff"/>
      <path clip-rule="evenodd" d="m243.27 20.754c.659.36 1.056.9015.888 1.2096-.169.308-.839.2659-1.498-.094-.658-.36-1.056-.9015-.888-1.2095.169-.3081.839-.266 1.498.0939zm1.745 3.694c.972.6193 1.525 1.4896 1.236 1.9439-.29.4543-1.312.3206-2.284-.2987s-1.525-1.4897-1.236-1.944 1.312-.3205 2.284.2988z" fill="#ffbab5" fill-rule="evenodd"/>
      <path d="m241.443 18.764c13.051 4.3857 6.701 13.6853 6.701 13.6853l10.143-4.8598s-1.195.8167-2.457 2.2104l.592-1.0844-8.443 3.8232s3.664-8.9209-7.009-13.8593c-.595-.275-1.112-.5346-1.557-.7799 1.088.5219 2.03.8645 2.03.8645z" fill="#fff"/>
      <path d="m249.965 12.7354c1.148-.003 2.384.0065 3.714.0297 0 0-8.267-2.0424-17.057-.5476 5.259-.627 10.27-.0316 13.343.5179z" fill="#fff"/>
      <path d="m253.953 31.2216c-1.586 2.2526-2.519 5.3117-.022 8.7707-1.941-3.5301-.73-6.7119.903-8.971z" fill="#fff"/>
      <path d="m254.111 40.3052-.141-.0648.177.1246c-.012-.0199-.024-.0399-.036-.0598z" fill="#fff"/>
      <path d="m185.845 113.008s13.854-20.0934-14.383-29.7277c0 0-34.216-13.1341 29.546-23.3814 0 0-38.705-.9912-58.245 15.0188-3.005 2.4594-5.997 4.9339-9.106 7.2616-4.038 3.0236-9.713 8.4292-13.191 16.7241 0 0-1.775 5.5266-3.632-.4406 0 0 .08 9.6792-4.342 9.7562-4.423.076-6.594-1.517-6.594-1.517l.37 4.954s9.289 1.79 15.745 8.436c0 0 14.606 15.55 32.867 12.73l-2.519-5.983s20.468 15.66 30.086 9.755c9.62-5.908.556-18.642.556-18.642l15.777 12.27-.169-4.331-6.942-5.127 6.885 2.272c.119-4.455 1.468-8.801 3.742-12.646l4.412-7.471-20.867 10.089z" fill="#ff928a"/>
      <path d="m199.48 106.414c1.54.513 2.981.982 4.331 1.412l2.898-4.907z" fill="#ffe1df"/>
      <path d="m126.342 89.1747c2.707-2.0849 5.351-4.2504 7.995-6.4162.339-.2782.679-.5564 1.019-.8344 9.533-7.8117 22.957-12.1727 35.385-14.602 5.892-2.4962 15.426-5.038 30.268-7.4233 0 0-38.706-.9913-58.245 15.0187-.29.237-.579.4742-.869.7113-2.714 2.2237-5.428 4.447-8.237 6.5503-2.165 1.6211-4.8 3.9269-7.316 6.9956z" fill="#ffe1df"/>
      <path d="m168.482 81.8693c.327 7.7601 12.561 15.5869 20.762 19.9777-.032-6.246-3.594-13.7265-17.781-18.5669 0 0-1.332-.5112-2.981-1.4108z" fill="#ffe1df"/>
      <path d="m167.815 100.598c-16.683-13.1171-17.589-30.5494-17.588-30.5737-1.015.5393-2.008 1.1077-2.975 1.7062-.018.0085-.033.0217-.047.031-.962.5993-1.895 1.2295-2.796 1.8866 0 0-1.399 37.6689 37.355 63.3259.232-.115.465-.234.686-.371 9.62-5.909.555-18.642.555-18.642s1.507-4.239-15.186-17.362z" fill="#000c2a"/>
      <path d="m141.293 116.382c-3.042-3.617-4.983-8.046-5.505-12.741-1.645-14.7771 3.787-26.1105 3.787-26.1105l-.01.0062c-1.944 1.5826-3.9 3.1464-5.904 4.647-4.039 3.0236-9.714 8.4292-13.191 16.7241 0 0-1.776 5.5262-3.633-.4406 0 0 .03 3.7068-.997 6.5508l1.37.519c-.028.133-.048.268-.067.398-.244 1.869.708 3.685 2.309 4.682 16.453 10.23 12.775 17.274 12.775 17.274 5.88 3.385 13.839 6.303 22.655 4.943l-2.52-5.983c-4.132-2.718-8.195-7.042-11.069-10.465z" fill="#000c2a"/>
      <path d="m113.693 107.923c-.357.182-.756.291-1.202.3-.948.018-1.784-.046-2.525-.152 1.395.965 8.127 5.488 3.727-.148z" fill="#000c2a"/>
      <path d="m196.108 108.048s-3.421 6.363-2.773 13.269l5.219 1.72c.119-4.455 1.468-8.801 3.742-12.646l4.412-7.471-10.604 5.127z" fill="#000c2a"/>
      <path d="m198.61 125.895-5.19-3.833c.246 1.791.774 3.604 1.726 5.343l3.629 2.821-.169-4.332z" fill="#000c2a"/>
      <path d="m130.229 113.008c.134 1.625.4 6.859-1.199 10.564 0 0 3.569 4.258 9.465-.268 0 0-1.427-8.336-5.213-11.385-.314-.254-.668-.459-1.06-.553-.448-.106-1.049-.121-1.533.337-.351.331-.499.823-.46 1.301z" fill="#0069ff"/>
      <path d="m122.88 108.478c1.081.226 2.14-.467 2.365-1.547.226-1.081-.467-2.14-1.547-2.366-1.081-.225-2.14.467-2.366 1.548-.225 1.081.468 2.14 1.548 2.365z" fill="#fff"/>
      <path d="m123.058 107.626c.61.127 1.207-.263 1.335-.873.127-.609-.264-1.207-.873-1.334-.61-.127-1.207.264-1.334.873-.128.609.263 1.207.872 1.334z" fill="#000c2a"/>
      <path d="m124.646 107.321c.038-.166-.218-.366-.571-.446-.353-.081-.67-.012-.707.154-.038.166.217.366.57.446.353.081.67.011.708-.154z" fill="#fff"/>
      <path d="m186.22 112.824 17.16-6.927-2.39 4.779c-2.081 3.521-3.172 6.808-2.561 12.319l.125.041c.119-4.455 1.468-8.801 3.742-12.646l4.412-7.471z" fill="#fff"/>
      <path d="m197.558 125.113 1.213 4.876-.16-4.099z" fill="#fff"/>
      <path d="m186.179 112.479c1.921-3.204 10.646-20.1733-14.021-28.9563 19.486 10.6372 15.006 26.1943 14.021 28.9563z" fill="#fff"/>
      <path d="m183.232 63.3922c4.841-1.1854 10.706-2.3572 17.777-3.4934 0 0-37.911-.9709-57.634 14.5281 11.462-8.2286 27.921-10.5497 39.857-11.0347z" fill="#fff"/>
      <path clip-rule="evenodd" d="m180.665 92.0862c.427-.7955-.606-2.1814-2.308-3.0956-1.701-.9142-3.427-1.0105-3.855-.215-.427.7954.606 2.1814 2.308 3.0956s3.428 1.0105 3.855.215zm-56.486 10.7238c.048-.149-.17-.353-.487-.455s-.614-.064-.662.085.17.353.488.455c.317.103.613.065.661-.085zm56.624-6.9646c1.046.5621 1.681 1.4151 1.418 1.9053-.263.4901-1.325.4317-2.371-.1304-1.047-.5621-1.682-1.4151-1.418-1.9052.263-.4901 1.325-.4318 2.371.1303z" fill="#ffbab5" fill-rule="evenodd"/>
      <path d="m148.824 177.669c17.646 1.797 32.126 1.548 32.34-.556s-13.918-5.267-31.564-7.064c-17.647-1.797-32.126-1.548-32.341.557-.214 2.104 13.918 5.266 31.565 7.063z" fill="#000c2a"/>
      <path clip-rule="evenodd" d="m275.468 172.673 93.539 22.667c-.191.265-.295.548-.295.842 0 1.482 2.63 2.683 5.874 2.683 1.894 0 3.579-.41 4.653-1.045l24.455 5.926-127.892 31.073-8.631-2.091c.118-.212.181-.434.181-.662 0-1.482-2.63-2.683-5.874-2.683-1.747 0-3.315.348-4.391.901l-109.511-26.538z" fill="#000c2a" fill-rule="evenodd"/>
      <path d="m193.526 163.008v-6.95l111.25-27.453 105.321 27.453v6.95l-57.194 82.357h-102.531z" fill="url(#s)"/>
      <path d="m408.818 163.017-106.691 25.943-8.87-2.151c.052-.126.079-.256.079-.389 0-1.144-2.023-2.071-4.519-2.071-1.249 0-2.38.232-3.198.607l-90.461-21.939-.002-5.846 53.016 9.929 53.955 13.16 106.689-23.083z" fill="#000c2a"/>
      <path clip-rule="evenodd" d="m301.844 131.234 78.032 18.925c-.159.221-.246.457-.246.702 0 1.237 2.194 2.24 4.9 2.24 1.58 0 2.986-.342 3.882-.872l20.401 4.947-106.691 25.943-7.199-1.746c.098-.177.15-.362.15-.553 0-1.237-2.194-2.24-4.9-2.24-1.457 0-2.766.291-3.663.753l-91.357-22.157z" fill="#1433d6" fill-rule="evenodd"/>
      <path clip-rule="evenodd" d="m301.845 134.115 75.283 18.258c.596 1.424 1.949 2.242 2.774 2.619 1.328.607 2.968.909 4.628.909 1.449 0 2.918-.231 4.178-.719l8.24 1.998-94.827 23.058-4.634-1.124c-.633-1.304-1.899-2.064-2.685-2.424-1.329-.607-2.968-.909-4.629-.909-1.356 0-2.71.201-3.894.615l-79.261-19.223zm-106.692 23.061 106.691-25.942 78.032 18.925c-.159.221-.246.457-.246.702 0 .074.008.146.023.218.24 1.135 2.332 2.022 4.877 2.022 1.58 0 2.986-.342 3.882-.872l20.401 4.947-106.691 25.943-7.199-1.746c.098-.177.15-.362.15-.553 0-.02-.001-.04-.002-.06-.069-1.209-2.236-2.18-4.898-2.18-1.457 0-2.766.291-3.663.753z" fill="#ff928a" fill-rule="evenodd"/>
      <path d="m302.073 188.946.056.014 106.691-25.943-.002-5.84-106.689 27.339z" fill="#0069ff"/>
      <path d="m349.081 172.484 49.528-6.968 10.21-2.448v-5.891z" fill="#c6e3ff"/>
      <path d="m304.72 151.466-2.454-.605-2.263.559 2.441.607z" fill="#ff928a"/>
      <path d="m301.469 152.267-2.441-.606-1.977.488 2.44.606z" fill="#ff928a"/>
      <path d="m300.466 152.998 1.978-.488 1.977.491-1.978.488z" fill="#ff928a"/>
      <path d="m298.516 152.996-2.44-.606-1.926.475 2.439.606z" fill="#ff928a"/>
      <path d="m297.563 153.714 1.927-.476 1.978.492-1.927.475z" fill="#ff928a"/>
      <path d="m295.614 153.712-2.438-.606-2.052.507 2.437.605z" fill="#ff928a"/>
      <path d="m294.535 154.461 2.053-.507 1.978.492-2.053.506z" fill="#ff928a"/>
      <path d="m292.586 154.459-2.436-.606-1.859.459 2.435.606z" fill="#ff928a"/>
      <path d="m291.701 155.16 1.859-.459 1.978.492-1.86.458z" fill="#ff928a"/>
      <path d="m289.751 155.158-2.435-.605-1.969.486 2.434.605z" fill="#ff928a"/>
      <path d="m288.755 155.886 1.971-.486 1.977.492-1.97.486z" fill="#ff928a"/>
      <path d="m286.805 155.885-2.432-.605-2.739.677 2.442.601z" fill="#ff928a"/>
      <path d="m285.055 156.799 2.725-.672 1.978.491-2.717.671z" fill="#ff928a"/>
      <path d="m288.02 157.53 1.987.489 2.703-.667-1.978-.491z" fill="#ff928a"/>
      <path d="m291.707 156.62 1.978.492 1.97-.486-1.977-.492z" fill="#ff928a"/>
      <path d="m294.653 155.894 1.977.491 1.86-.459-1.977-.491z" fill="#ff928a"/>
      <path d="m297.488 155.194 1.977.492 2.053-.507-1.978-.491z" fill="#ff928a"/>
      <path d="m300.516 154.447 1.977.492 1.927-.476-1.977-.491z" fill="#ff928a"/>
      <path d="m303.418 153.731 1.977.492 1.979-.488-1.978-.492z" fill="#ff928a"/>
      <path d="m306.371 153.003 1.978.491 2.302-.568-1.987-.489z" fill="#ff928a"/>
      <path d="m307.685 152.196-1.986-.489-2.28.562 1.978.492z" fill="#ff928a"/>
      <path d="m311.63 153.168-2.307.569 1.978.491 2.315-.571z" fill="#ff928a"/>
      <path d="m314.595 153.898-2.319.572 1.977.492 2.329-.575z" fill="#ff928a"/>
      <path d="m317.561 154.629-2.333.575 1.977.491 2.342-.577z" fill="#ff928a"/>
      <path d="m320.526 155.359-2.346.579 1.978.491 2.354-.581z" fill="#ff928a"/>
      <path d="m304.519 160.287-2.651.654-1.986-.489 2.659-.656z" fill="#ff928a"/>
      <path d="m307.464 159.56-1.97.486-1.978-.491 1.971-.486z" fill="#ff928a"/>
      <path d="m310.299 158.861-1.86.459-1.977-.492 1.859-.458z" fill="#ff928a"/>
      <path d="m313.327 158.114-2.053.507-1.978-.492 2.053-.506z" fill="#ff928a"/>
      <path d="m316.229 157.398-1.927.476-1.978-.492 1.927-.475z" fill="#ff928a"/>
      <path d="m319.182 156.67-1.978.488-1.977-.492 1.978-.488z" fill="#ff928a"/>
      <path d="m316.23 155.936-1.977-.491-1.979.488 1.978.491z" fill="#ff928a"/>
      <path d="m313.277 156.665-1.978-.492-1.927.475 1.978.492z" fill="#ff928a"/>
      <path d="m310.375 157.381-1.978-.492-2.053.506 1.978.492z" fill="#ff928a"/>
      <path d="m307.347 158.127-1.978-.491-1.859.459 1.977.491z" fill="#ff928a"/>
      <path d="m304.512 158.827-1.978-.492-1.97.486 1.978.492z" fill="#ff928a"/>
      <path d="m301.567 159.553-1.978-.491-2.672.659 1.986.489z" fill="#ff928a"/>
      <path d="m295.938 159.48 2.676-.66-1.977-.492-2.686.663z" fill="#ff928a"/>
      <path d="m292.972 158.749 2.69-.663-1.977-.492-2.699.666z" fill="#ff928a"/>
      <path d="m294.66 157.354 1.977.491 1.971-.486-1.978-.491z" fill="#ff928a"/>
      <path d="m297.605 156.627 1.978.492 1.859-.459-1.977-.491z" fill="#ff928a"/>
      <path d="m300.44 155.928 1.977.491 2.053-.506-1.977-.491z" fill="#ff928a"/>
      <path d="m303.468 155.181 1.977.492 1.927-.476-1.977-.491z" fill="#ff928a"/>
      <path d="m306.37 154.465 1.977.492 1.979-.488-1.978-.492z" fill="#ff928a"/>
      <path d="m311.301 154.711-1.979.488 1.978.491 1.978-.488z" fill="#ff928a"/>
      <path d="m310.325 155.931-1.978-.492-1.927.476 1.977.491z" fill="#ff928a"/>
      <path d="m307.422 156.647-1.977-.492-2.053.507 1.978.491z" fill="#ff928a"/>
      <path d="m304.395 157.394-1.978-.492-1.86.459 1.978.491z" fill="#ff928a"/>
      <path d="m301.56 158.093-1.978-.491-1.97.486 1.977.491z" fill="#ff928a"/>
      <g fill="url(#t)">
        <path d="m214.784 156.775c-.451.11-.727.564-.617 1.015.11.45.564.727 1.015.617l.055-.014c.45-.11.726-.564.616-1.015s-.564-.727-1.015-.617z"/>
        <path d="m217.621 156.082c-.451.11-.727.565-.617 1.015.11.451.565.727 1.015.617l.055-.013c.45-.11.727-.565.617-1.015-.11-.451-.565-.727-1.016-.617z"/>
        <path d="m220.458 155.39c-.451.11-.727.564-.617 1.015.11.45.565.727 1.015.617l.055-.014c.451-.11.727-.564.617-1.015s-.565-.727-1.015-.617z"/>
        <path d="m223.295 154.697c-.45.11-.727.564-.617 1.015s.565.727 1.016.617l.054-.013c.451-.11.727-.565.617-1.016-.11-.45-.565-.726-1.015-.616z"/>
        <path d="m226.132 154.004c-.45.11-.727.565-.616 1.016.11.45.564.726 1.015.616l.054-.013c.451-.11.727-.564.617-1.015s-.564-.727-1.015-.617z"/>
        <path d="m228.969 153.312c-.45.11-.726.564-.616 1.015s.564.727 1.015.617l.054-.013c.451-.11.727-.565.617-1.016-.11-.45-.564-.726-1.015-.616z"/>
        <path d="m231.807 152.619c-.451.11-.727.565-.617 1.016.11.45.564.726 1.015.616l.055-.013c.45-.11.726-.564.616-1.015s-.564-.727-1.015-.617z"/>
        <path d="m234.644 151.927c-.451.11-.727.564-.617 1.015s.564.727 1.015.617l.055-.013c.45-.11.727-.565.617-1.016-.11-.45-.565-.726-1.016-.616z"/>
        <path d="m237.481 151.234c-.451.11-.727.565-.617 1.016.11.45.565.726 1.015.616l.055-.013c.451-.11.727-.565.617-1.015-.11-.451-.565-.727-1.015-.617z"/>
        <path d="m240.318 150.542c-.451.11-.727.564-.617 1.015s.565.727 1.015.617l.055-.014c.451-.11.727-.564.617-1.015-.11-.45-.565-.727-1.015-.617z"/>
        <path d="m243.155 149.849c-.45.11-.727.565-.617 1.015.11.451.565.727 1.016.617l.054-.013c.451-.11.727-.565.617-1.015-.11-.451-.565-.727-1.015-.617z"/>
        <path d="m245.992 149.157c-.45.11-.726.564-.616 1.015s.564.727 1.015.617l.054-.014c.451-.11.727-.564.617-1.015-.11-.45-.564-.727-1.015-.617z"/>
        <path d="m248.83 148.464c-.451.11-.727.565-.617 1.015.11.451.564.727 1.015.617l.054-.013c.451-.11.727-.565.617-1.015-.11-.451-.564-.727-1.015-.617z"/>
        <path d="m251.667 147.772c-.451.11-.727.564-.617 1.015s.564.727 1.015.617l.055-.014c.45-.11.726-.564.616-1.015s-.564-.727-1.015-.617z"/>
        <path d="m254.504 147.079c-.451.11-.727.565-.617 1.015.11.451.565.727 1.015.617l.055-.013c.45-.11.727-.565.617-1.015-.11-.451-.565-.727-1.016-.617z"/>
        <path d="m257.341 146.387c-.451.11-.727.564-.617 1.015.11.45.565.727 1.015.617l.055-.014c.451-.11.727-.564.617-1.015s-.565-.727-1.015-.617z"/>
        <path d="m260.178 145.694c-.45.11-.727.565-.617 1.015.11.451.565.727 1.016.617l.054-.013c.451-.11.727-.565.617-1.015-.11-.451-.565-.727-1.015-.617z"/>
        <path d="m263.015 145.001c-.45.111-.726.565-.616 1.016.11.45.564.727 1.015.617l.054-.014c.451-.11.727-.564.617-1.015s-.564-.727-1.015-.617z"/>
        <path d="m265.853 144.309c-.451.11-.727.564-.617 1.015s.564.727 1.015.617l.054-.013c.451-.11.727-.565.617-1.016-.11-.45-.564-.726-1.015-.616z"/>
        <path d="m268.69 143.616c-.451.11-.727.565-.617 1.016.11.45.564.726 1.015.616l.055-.013c.45-.11.726-.564.616-1.015s-.564-.727-1.015-.617z"/>
        <path d="m271.527 142.924c-.451.11-.727.564-.617 1.015s.565.727 1.015.617l.055-.013c.45-.11.727-.565.617-1.016-.11-.45-.565-.726-1.016-.616z"/>
        <path d="m274.364 142.231c-.451.11-.727.565-.617 1.016.11.45.565.726 1.015.616l.055-.013c.451-.11.727-.564.617-1.015s-.565-.727-1.015-.617z"/>
        <path d="m277.201 141.539c-.451.11-.727.564-.617 1.015s.565.727 1.015.617l.055-.013c.451-.11.727-.565.617-1.016-.11-.45-.565-.726-1.015-.616z"/>
        <path d="m280.038 140.846c-.45.11-.727.565-.617 1.015.11.451.565.727 1.016.617l.054-.013c.451-.11.727-.565.617-1.015-.11-.451-.565-.727-1.015-.617z"/>
        <path d="m282.875 140.154c-.45.11-.726.564-.616 1.015s.564.727 1.015.617l.054-.014c.451-.11.727-.564.617-1.015-.11-.45-.564-.727-1.015-.617z"/>
        <path d="m285.713 139.461c-.451.11-.727.565-.617 1.015.11.451.564.727 1.015.617l.055-.013c.45-.11.726-.565.616-1.015-.11-.451-.564-.727-1.015-.617z"/>
        <path d="m288.55 138.769c-.451.11-.727.564-.617 1.015s.564.727 1.015.617l.055-.014c.45-.11.726-.564.616-1.015-.11-.45-.564-.727-1.015-.617z"/>
        <path d="m291.387 138.076c-.451.11-.727.565-.617 1.015.11.451.565.727 1.015.617l.055-.013c.45-.11.727-.565.617-1.015-.11-.451-.565-.727-1.016-.617z"/>
        <path d="m294.224 137.384c-.451.11-.727.564-.617 1.015s.565.727 1.015.617l.055-.014c.451-.11.727-.564.617-1.015s-.565-.727-1.015-.617z"/>
        <path d="m297.061 136.691c-.45.11-.727.565-.617 1.015.11.451.565.727 1.016.617l.054-.013c.451-.11.727-.565.617-1.015-.11-.451-.565-.727-1.015-.617z"/>
        <path d="m299.898 135.999c-.45.11-.726.564-.616 1.015.11.45.564.727 1.015.617l.054-.014c.451-.11.727-.564.617-1.015s-.564-.727-1.015-.617z"/>
        <path d="m302.736 135.306c-.451.11-.727.565-.617 1.015.11.451.564.727 1.015.617l.054-.013c.451-.11.727-.565.617-1.015-.11-.451-.564-.727-1.015-.617z"/>
        <path d="m223.598 158.985c-.451.11-.727.565-.617 1.016.11.45.564.726 1.015.616l.055-.013c.45-.11.726-.564.616-1.015s-.564-.727-1.015-.617z"/>
        <path d="m226.435 158.293c-.451.11-.727.564-.617 1.015s.564.727 1.015.617l.055-.013c.45-.11.727-.565.617-1.016-.11-.45-.565-.727-1.016-.617z"/>
        <path d="m229.272 157.6c-.451.11-.727.565-.617 1.015.11.451.565.727 1.015.617l.055-.013c.451-.11.727-.565.617-1.015-.11-.451-.565-.727-1.015-.617z"/>
        <path d="m232.109 156.908c-.451.11-.727.564-.617 1.015s.565.727 1.015.617l.055-.014c.451-.11.727-.564.617-1.015-.11-.45-.565-.727-1.015-.617z"/>
        <path d="m234.946 156.215c-.45.11-.727.565-.617 1.015.11.451.565.727 1.016.617l.054-.013c.451-.11.727-.565.617-1.015-.11-.451-.565-.727-1.015-.617z"/>
        <path d="m237.783 155.523c-.45.11-.726.564-.616 1.015s.564.727 1.015.617l.054-.014c.451-.11.727-.564.617-1.015-.11-.45-.564-.727-1.015-.617z"/>
        <path d="m240.621 154.83c-.451.11-.727.565-.617 1.015.11.451.564.727 1.015.617l.055-.013c.45-.11.726-.565.616-1.015-.11-.451-.564-.727-1.015-.617z"/>
        <path d="m243.458 154.138c-.451.11-.727.564-.617 1.015.11.45.564.727 1.015.617l.055-.014c.45-.11.727-.564.616-1.015-.11-.451-.564-.727-1.015-.617z"/>
        <path d="m246.295 153.445c-.451.11-.727.565-.617 1.015.11.451.565.727 1.015.617l.055-.013c.45-.11.727-.565.617-1.015-.11-.451-.565-.727-1.016-.617z"/>
        <path d="m249.132 152.753c-.451.11-.727.564-.617 1.015.11.45.565.727 1.015.617l.055-.014c.451-.11.727-.564.617-1.015s-.565-.727-1.015-.617z"/>
        <path d="m251.969 152.06c-.45.11-.727.565-.617 1.015.11.451.565.727 1.016.617l.054-.013c.451-.11.727-.565.617-1.015-.11-.451-.565-.727-1.015-.617z"/>
        <path d="m254.806 151.367c-.45.11-.727.565-.616 1.016.11.45.564.727 1.015.617l.054-.014c.451-.11.727-.564.617-1.015s-.564-.727-1.015-.617z"/>
        <path d="m257.643 150.675c-.45.11-.726.564-.616 1.015s.564.727 1.015.617l.054-.013c.451-.11.727-.565.617-1.016-.11-.45-.564-.726-1.015-.616z"/>
        <path d="m260.481 149.982c-.451.11-.727.565-.617 1.016.11.45.564.726 1.015.616l.055-.013c.45-.11.726-.564.616-1.015s-.564-.727-1.015-.617z"/>
        <path d="m263.318 149.29c-.451.11-.727.564-.617 1.015s.564.727 1.015.617l.055-.013c.45-.11.727-.565.617-1.016-.11-.45-.565-.726-1.016-.616z"/>
        <path d="m266.155 148.597c-.451.11-.727.565-.617 1.016.11.45.565.726 1.015.616l.055-.013c.451-.11.727-.564.617-1.015s-.565-.727-1.015-.617z"/>
        <path d="m268.992 147.905c-.451.11-.727.564-.617 1.015s.565.727 1.015.617l.055-.013c.451-.11.727-.565.617-1.016-.11-.45-.565-.727-1.015-.617z"/>
        <path d="m271.829 147.212c-.45.11-.727.565-.617 1.015.11.451.565.727 1.016.617l.054-.013c.451-.11.727-.565.617-1.015-.11-.451-.564-.727-1.015-.617z"/>
        <path d="m274.666 146.52c-.45.11-.726.564-.616 1.015s.564.727 1.015.617l.054-.014c.451-.11.727-.564.617-1.015-.11-.45-.564-.727-1.015-.617z"/>
        <path d="m277.504 145.827c-.451.11-.727.565-.617 1.015.11.451.564.727 1.015.617l.055-.013c.45-.11.726-.565.616-1.015-.11-.451-.564-.727-1.015-.617z"/>
        <path d="m280.341 145.135c-.451.11-.727.564-.617 1.015s.564.727 1.015.617l.055-.014c.45-.11.727-.564.617-1.015-.111-.451-.565-.727-1.016-.617z"/>
        <path d="m283.178 144.442c-.451.11-.727.565-.617 1.015.11.451.565.727 1.015.617l.055-.013c.45-.11.727-.565.617-1.015-.11-.451-.565-.727-1.016-.617z"/>
        <path d="m286.015 143.75c-.451.11-.727.564-.617 1.015.11.45.565.727 1.015.617l.055-.014c.451-.11.727-.564.617-1.015s-.565-.727-1.015-.617z"/>
        <path d="m288.852 143.057c-.45.11-.727.565-.617 1.015.11.451.565.727 1.016.617l.054-.013c.451-.11.727-.565.617-1.015-.11-.451-.565-.727-1.015-.617z"/>
        <path d="m291.689 142.365c-.45.11-.726.564-.616 1.015.11.45.564.727 1.015.617l.054-.014c.451-.11.727-.564.617-1.015s-.564-.727-1.015-.617z"/>
        <path d="m294.527 141.672c-.451.11-.727.565-.617 1.015.11.451.564.727 1.015.617l.054-.013c.451-.11.727-.565.617-1.015-.11-.451-.564-.727-1.015-.617z"/>
        <path d="m297.364 140.979c-.451.11-.727.565-.617 1.016.11.45.564.726 1.015.616l.055-.013c.45-.11.726-.564.616-1.015s-.564-.727-1.015-.617z"/>
        <path d="m300.201 140.287c-.451.11-.727.564-.617 1.015s.565.727 1.015.617l.055-.013c.45-.11.727-.565.617-1.016-.11-.45-.565-.726-1.016-.616z"/>
        <path d="m303.038 139.594c-.451.11-.727.565-.617 1.016.11.45.565.726 1.015.616l.055-.013c.451-.11.727-.564.617-1.015s-.565-.727-1.015-.617z"/>
        <path d="m305.875 138.902c-.451.11-.727.564-.617 1.015s.565.727 1.015.617l.055-.013c.451-.11.727-.565.617-1.016-.11-.45-.565-.726-1.015-.616z"/>
        <path d="m308.712 138.209c-.45.11-.727.565-.617 1.016.11.45.565.726 1.016.616l.054-.013c.451-.11.727-.564.617-1.015s-.564-.727-1.015-.617z"/>
        <path d="m311.549 137.517c-.45.11-.726.564-.616 1.015s.564.727 1.015.617l.054-.013c.451-.11.727-.565.617-1.016-.11-.45-.564-.727-1.015-.617z"/>
        <path d="m233.784 162.078c-.11-.451.167-.905.617-1.015l.055-.014c.45-.11.905.167 1.015.617.11.451-.166.905-.617 1.015l-.054.014c-.451.11-.906-.166-1.016-.617z"/>
        <path d="m236.622 161.385c-.11-.45.166-.905.616-1.015l.055-.013c.451-.11.905.166 1.015.617.11.45-.166.905-.617 1.015l-.054.013c-.451.11-.905-.166-1.015-.617z"/>
        <path d="m239.459 160.693c-.11-.451.166-.905.617-1.015l.054-.014c.451-.11.905.167 1.015.617.11.451-.166.905-.617 1.015l-.054.014c-.451.11-.905-.166-1.015-.617z"/>
        <path d="m242.296 160c-.11-.45.166-.905.617-1.015l.054-.013c.451-.11.905.166 1.015.617.11.45-.166.905-.616 1.015l-.055.013c-.451.11-.905-.166-1.015-.617z"/>
        <path d="m245.133 159.308c-.11-.451.166-.905.617-1.015l.054-.014c.451-.11.906.166 1.016.617s-.167.905-.617 1.015l-.055.014c-.45.11-.905-.167-1.015-.617z"/>
        <path d="m247.97 158.615c-.11-.45.166-.905.617-1.015l.055-.013c.45-.11.905.166 1.015.617.11.45-.166.905-.617 1.015l-.055.013c-.45.11-.905-.166-1.015-.617z"/>
        <path d="m250.807 157.923c-.11-.451.166-.905.617-1.015l.055-.014c.45-.11.905.166 1.015.617s-.166.905-.617 1.015l-.054.014c-.451.11-.906-.167-1.016-.617z"/>
        <path d="m253.644 157.23c-.11-.45.167-.905.617-1.015l.055-.013c.451-.11.905.166 1.015.617.11.45-.166.905-.617 1.015l-.054.013c-.451.11-.906-.166-1.016-.617z"/>
        <path d="m256.482 156.538c-.11-.451.166-.906.616-1.016l.055-.013c.451-.11.905.166 1.015.617s-.166.905-.617 1.015l-.054.014c-.451.11-.905-.167-1.015-.617z"/>
        <path d="m259.319 155.845c-.11-.451.166-.905.617-1.015l.054-.013c.451-.11.905.166 1.015.616.11.451-.166.906-.616 1.016l-.055.013c-.451.11-.905-.166-1.015-.617z"/>
        <path d="m262.156 155.153c-.11-.451.166-.906.617-1.016l.054-.013c.451-.11.906.166 1.016.617s-.167.905-.617 1.015l-.055.013c-.451.11-.905-.166-1.015-.616z"/>
        <path d="m264.993 154.46c-.11-.451.166-.905.617-1.015l.054-.013c.451-.11.906.166 1.016.616.11.451-.166.906-.617 1.016l-.055.013c-.45.11-.905-.166-1.015-.617z"/>
        <path d="m267.83 153.768c-.11-.451.166-.906.617-1.016l.055-.013c.45-.11.905.166 1.015.617s-.166.905-.617 1.015l-.055.013c-.45.11-.905-.166-1.015-.616z"/>
        <path d="m270.667 153.075c-.11-.451.167-.905.617-1.015l.055-.014c.45-.11.905.167 1.015.617.11.451-.166.906-.617 1.016l-.054.013c-.451.11-.906-.166-1.016-.617z"/>
        <path d="m273.505 152.382c-.11-.45.166-.905.616-1.015l.055-.013c.451-.11.905.166 1.015.617.11.45-.166.905-.617 1.015l-.054.013c-.451.11-.905-.166-1.015-.617z"/>
        <path d="m276.342 151.69c-.11-.451.166-.905.617-1.015l.054-.014c.451-.11.905.167 1.015.617.11.451-.166.905-.617 1.015l-.054.014c-.451.11-.905-.166-1.015-.617z"/>
        <path d="m279.179 150.997c-.11-.45.166-.905.617-1.015l.054-.013c.451-.11.905.166 1.015.617.11.45-.166.905-.616 1.015l-.055.013c-.451.11-.905-.166-1.015-.617z"/>
        <path d="m282.016 150.305c-.11-.451.166-.905.617-1.015l.054-.014c.451-.11.906.167 1.016.617.11.451-.167.905-.617 1.015l-.055.014c-.45.11-.905-.166-1.015-.617z"/>
        <path d="m284.853 149.612c-.11-.45.166-.905.617-1.015l.055-.013c.45-.11.905.166 1.015.617.11.45-.166.905-.617 1.015l-.055.013c-.45.11-.905-.166-1.015-.617z"/>
        <path d="m287.69 148.92c-.11-.451.166-.905.617-1.015l.055-.014c.45-.11.905.166 1.015.617s-.166.905-.617 1.015l-.054.014c-.451.11-.906-.167-1.016-.617z"/>
        <path d="m290.527 148.227c-.11-.45.167-.905.617-1.015l.055-.013c.451-.11.905.166 1.015.617.11.45-.166.905-.617 1.015l-.054.013c-.451.11-.906-.166-1.016-.617z"/>
        <path d="m293.365 147.535c-.11-.451.166-.905.616-1.015l.055-.014c.451-.11.905.166 1.015.617s-.166.905-.617 1.015l-.054.014c-.451.11-.905-.167-1.015-.617z"/>
        <path d="m296.202 146.842c-.11-.45.166-.905.617-1.015l.054-.013c.451-.11.905.166 1.015.617.11.45-.166.905-.616 1.015l-.055.013c-.451.11-.905-.166-1.015-.617z"/>
        <path d="m299.039 146.15c-.11-.451.166-.906.617-1.016l.054-.013c.451-.11.906.166 1.016.617s-.167.905-.617 1.015l-.055.014c-.451.11-.905-.167-1.015-.617z"/>
        <path d="m301.876 145.457c-.11-.451.166-.905.617-1.015l.054-.013c.451-.11.906.166 1.016.616.11.451-.166.906-.617 1.016l-.055.013c-.45.11-.905-.166-1.015-.617z"/>
        <path d="m304.713 144.765c-.11-.451.166-.906.617-1.016l.055-.013c.45-.11.905.166 1.015.617s-.166.905-.617 1.015l-.055.013c-.45.11-.905-.166-1.015-.616z"/>
        <path d="m307.55 144.072c-.11-.451.167-.905.617-1.015l.055-.013c.45-.11.905.166 1.015.616.11.451-.166.906-.617 1.016l-.054.013c-.451.11-.906-.166-1.016-.617z"/>
        <path d="m310.388 143.38c-.11-.451.166-.906.616-1.016l.055-.013c.451-.11.905.166 1.015.617s-.166.905-.617 1.015l-.054.013c-.451.11-.905-.166-1.015-.616z"/>
        <path d="m313.225 142.687c-.11-.451.166-.905.617-1.015l.054-.014c.451-.11.905.167 1.015.617.11.451-.166.906-.617 1.016l-.054.013c-.451.11-.905-.166-1.015-.617z"/>
        <path d="m316.062 141.994c-.11-.45.166-.905.617-1.015l.054-.013c.451-.11.905.166 1.015.617.11.45-.166.905-.616 1.015l-.055.013c-.451.11-.905-.166-1.015-.617z"/>
        <path d="m318.899 141.302c-.11-.451.166-.905.617-1.015l.054-.014c.451-.11.906.167 1.016.617.11.451-.167.905-.617 1.015l-.055.014c-.45.11-.905-.166-1.015-.617z"/>
        <path d="m321.736 140.609c-.11-.45.166-.905.617-1.015l.055-.013c.45-.11.905.166 1.015.617.11.45-.166.905-.617 1.015l-.055.013c-.45.11-.905-.166-1.015-.617z"/>
        <path d="m242.096 163.833c-.451.11-.727.565-.617 1.015.11.451.565.727 1.016.617l.054-.013c.451-.11.727-.565.617-1.015-.11-.451-.565-.727-1.015-.617z"/>
        <path d="m244.933 163.14c-.45.11-.727.565-.617 1.016.11.45.565.727 1.016.616l.054-.013c.451-.11.727-.564.617-1.015s-.564-.727-1.015-.617z"/>
        <path d="m247.77 162.448c-.45.11-.726.564-.616 1.015s.564.727 1.015.617l.054-.013c.451-.11.727-.565.617-1.016-.11-.45-.564-.726-1.015-.616z"/>
        <path d="m250.608 161.755c-.451.11-.727.565-.617 1.016.11.45.564.726 1.015.616l.055-.013c.45-.11.726-.564.616-1.015s-.564-.727-1.015-.617z"/>
        <path d="m253.445 161.063c-.451.11-.727.564-.617 1.015s.564.727 1.015.617l.055-.013c.45-.11.727-.565.617-1.016-.11-.45-.565-.726-1.016-.616z"/>
        <path d="m256.282 160.37c-.451.11-.727.565-.617 1.016.11.45.565.726 1.015.616l.055-.013c.451-.11.727-.564.617-1.015s-.565-.727-1.015-.617z"/>
        <path d="m259.119 159.678c-.451.11-.727.564-.617 1.015s.565.727 1.015.617l.055-.013c.451-.11.727-.565.617-1.016-.11-.45-.565-.727-1.015-.617z"/>
        <path d="m261.956 158.985c-.45.11-.727.565-.617 1.015.11.451.565.727 1.016.617l.054-.013c.451-.11.727-.565.617-1.015-.11-.451-.565-.727-1.015-.617z"/>
        <path d="m264.793 158.293c-.45.11-.726.564-.616 1.015s.564.727 1.015.617l.054-.014c.451-.11.727-.564.617-1.015-.11-.45-.564-.727-1.015-.617z"/>
        <path d="m267.631 157.6c-.451.11-.727.565-.617 1.015.11.451.564.727 1.015.617l.055-.013c.45-.11.726-.565.616-1.015-.11-.451-.564-.727-1.015-.617z"/>
        <path d="m270.468 156.908c-.451.11-.727.564-.617 1.015s.564.727 1.015.617l.055-.014c.45-.11.726-.564.616-1.015-.11-.45-.564-.727-1.015-.617z"/>
        <path d="m273.305 156.215c-.451.11-.727.565-.617 1.015.11.451.565.727 1.015.617l.055-.013c.45-.11.727-.565.617-1.015-.11-.451-.565-.727-1.016-.617z"/>
        <path d="m310.188 147.212c-.451.11-.727.565-.617 1.015.11.451.565.727 1.015.617l.055-.013c.45-.11.727-.565.617-1.015-.11-.451-.565-.727-1.016-.617z"/>
        <path d="m313.025 146.52c-.451.11-.727.564-.617 1.015s.565.727 1.015.617l.055-.014c.451-.11.727-.564.617-1.015s-.565-.727-1.015-.617z"/>
        <path d="m315.862 145.827c-.45.11-.727.565-.617 1.015.11.451.565.727 1.016.617l.054-.013c.451-.11.727-.565.617-1.015-.11-.451-.565-.727-1.015-.617z"/>
        <path d="m318.699 145.135c-.45.11-.726.564-.616 1.015.11.45.564.727 1.015.617l.054-.014c.451-.11.727-.564.617-1.015s-.564-.727-1.015-.617z"/>
        <path d="m321.536 144.442c-.45.11-.726.565-.616 1.015.11.451.564.727 1.015.617l.054-.013c.451-.11.727-.565.617-1.015-.11-.451-.564-.727-1.015-.617z"/>
        <path d="m324.374 143.75c-.451.11-.727.564-.617 1.015.11.45.564.727 1.015.617l.055-.014c.45-.11.726-.564.616-1.015s-.564-.727-1.015-.617z"/>
        <path d="m327.211 143.057c-.451.11-.727.565-.617 1.015.11.451.565.727 1.015.617l.055-.013c.45-.11.727-.565.617-1.016-.11-.45-.565-.726-1.016-.616z"/>
        <path d="m330.048 142.364c-.451.11-.727.565-.617 1.016.11.45.565.726 1.015.616l.055-.013c.451-.11.727-.564.617-1.015s-.565-.727-1.015-.617z"/>
        <path d="m252.286 166.926c-.11-.45.166-.905.617-1.015l.054-.013c.451-.11.906.166 1.016.617.11.45-.167.905-.617 1.015l-.055.013c-.45.11-.905-.166-1.015-.617z"/>
        <path d="m255.123 166.234c-.11-.451.166-.905.617-1.015l.055-.014c.45-.11.905.166 1.015.617s-.166.905-.617 1.015l-.055.014c-.45.11-.905-.166-1.015-.617z"/>
        <path d="m257.96 165.541c-.11-.45.166-.905.617-1.015l.055-.013c.45-.11.905.166 1.015.617.11.45-.166.905-.617 1.015l-.055.013c-.45.11-.905-.166-1.015-.617z"/>
        <path d="m260.797 164.849c-.11-.451.167-.905.617-1.015l.055-.014c.451-.11.905.166 1.015.617s-.166.905-.617 1.015l-.054.014c-.451.11-.906-.167-1.016-.617z"/>
        <path d="m263.635 164.156c-.11-.45.166-.905.616-1.015l.055-.013c.451-.11.905.166 1.015.617.11.45-.166.905-.617 1.015l-.054.013c-.451.11-.905-.166-1.015-.617z"/>
        <path d="m266.472 163.464c-.11-.451.166-.905.617-1.016l.054-.013c.451-.11.905.166 1.015.617s-.166.905-.616 1.015l-.055.014c-.451.11-.905-.167-1.015-.617z"/>
        <path d="m269.309 162.771c-.11-.451.166-.905.617-1.015l.054-.013c.451-.11.906.166 1.016.616.11.451-.167.906-.617 1.016l-.055.013c-.451.11-.905-.166-1.015-.617z"/>
        <path d="m272.146 162.079c-.11-.451.166-.906.617-1.016l.054-.013c.451-.11.906.166 1.016.617s-.166.905-.617 1.015l-.055.013c-.45.11-.905-.166-1.015-.616z"/>
        <path d="m274.983 161.386c-.11-.451.166-.905.617-1.015l.055-.013c.45-.11.905.166 1.015.616.11.451-.166.906-.617 1.016l-.055.013c-.45.11-.905-.166-1.015-.617z"/>
        <path d="m277.82 160.694c-.11-.451.167-.906.617-1.016l.055-.013c.45-.11.905.166 1.015.617s-.166.905-.617 1.015l-.054.013c-.451.11-.906-.166-1.016-.616z"/>
        <path d="m280.658 160.001c-.11-.451.166-.905.616-1.015l.055-.013c.451-.11.905.166 1.015.616.11.451-.166.906-.617 1.016l-.054.013c-.451.11-.905-.166-1.015-.617z"/>
        <path d="m320.378 150.306c-.11-.451.166-.906.617-1.016l.054-.013c.451-.11.905.166 1.015.617s-.166.905-.617 1.015l-.054.013c-.451.11-.905-.166-1.015-.616z"/>
        <path d="m323.215 149.613c-.11-.451.166-.905.617-1.015l.054-.013c.451-.111.905.166 1.015.616.11.451-.166.906-.616 1.016l-.055.013c-.451.11-.905-.166-1.015-.617z"/>
        <path d="m326.052 148.92c-.11-.45.166-.905.617-1.015l.054-.013c.451-.11.906.166 1.016.617.11.45-.167.905-.617 1.015l-.055.013c-.45.11-.905-.166-1.015-.617z"/>
        <path d="m328.889 148.228c-.11-.451.166-.905.617-1.015l.055-.014c.45-.11.905.167 1.015.617.11.451-.166.905-.617 1.015l-.055.014c-.45.11-.905-.166-1.015-.617z"/>
        <path d="m331.726 147.535c-.11-.45.166-.905.617-1.015l.055-.013c.45-.11.905.166 1.015.617.11.45-.166.905-.617 1.015l-.054.013c-.451.11-.906-.166-1.016-.617z"/>
        <path d="m334.563 146.843c-.11-.451.167-.905.617-1.015l.055-.014c.451-.11.905.167 1.015.617.11.451-.166.905-.617 1.015l-.054.014c-.451.11-.906-.166-1.016-.617z"/>
        <path d="m337.401 146.15c-.11-.45.166-.905.616-1.015l.055-.013c.451-.11.905.166 1.015.617.11.45-.166.905-.617 1.015l-.054.013c-.451.11-.905-.166-1.015-.617z"/>
        <path d="m340.238 145.458c-.11-.451.166-.905.617-1.015l.054-.014c.451-.11.905.166 1.015.617s-.166.905-.616 1.015l-.055.014c-.451.11-.905-.167-1.015-.617z"/>
        <path d="m263.709 167.988c-.45.11-.726.564-.616 1.015s.564.727 1.015.617l.054-.013c.451-.11.727-.565.617-1.016-.11-.45-.564-.727-1.015-.617z"/>
        <path d="m266.547 167.295c-.451.11-.727.565-.617 1.015.11.451.564.727 1.015.617l.055-.013c.45-.11.726-.565.616-1.015-.11-.451-.564-.727-1.015-.617z"/>
        <path d="m269.384 166.603c-.451.11-.727.564-.617 1.015s.564.727 1.015.617l.055-.014c.45-.11.727-.564.617-1.015-.11-.45-.565-.727-1.016-.617z"/>
        <path d="m272.221 165.91c-.451.11-.727.565-.617 1.015.11.451.565.727 1.015.617l.055-.013c.451-.11.727-.565.617-1.015-.11-.451-.565-.727-1.015-.617z"/>
        <path d="m275.058 165.218c-.451.11-.727.564-.617 1.015s.565.727 1.015.617l.055-.014c.451-.11.727-.564.617-1.015-.11-.45-.565-.727-1.015-.617z"/>
        <path d="m277.895 164.525c-.45.11-.727.565-.617 1.015.11.451.565.727 1.016.617l.054-.013c.451-.11.727-.565.617-1.015-.11-.451-.565-.727-1.015-.617z"/>
        <path d="m280.732 163.833c-.45.11-.726.564-.616 1.015.11.45.564.727 1.015.617l.054-.014c.451-.11.727-.564.617-1.015s-.564-.727-1.015-.617z"/>
        <path d="m283.57 163.14c-.451.11-.727.565-.617 1.015.11.451.564.727 1.015.617l.054-.013c.451-.11.727-.565.617-1.015-.11-.451-.564-.727-1.015-.617z"/>
        <path d="m286.407 162.448c-.451.11-.727.564-.617 1.015.11.45.564.727 1.015.617l.055-.014c.45-.11.726-.564.616-1.015s-.564-.727-1.015-.617z"/>
        <path d="m289.244 161.755c-.451.11-.727.565-.617 1.015.11.451.565.727 1.015.617l.055-.013c.45-.11.727-.565.617-1.015-.11-.451-.565-.727-1.016-.617z"/>
        <path d="m328.964 152.06c-.451.11-.727.564-.617 1.015.11.45.565.727 1.015.617l.055-.014c.451-.11.727-.564.617-1.015s-.565-.727-1.015-.617z"/>
        <path d="m331.801 151.367c-.45.11-.727.565-.617 1.015.11.451.565.727 1.016.617l.054-.013c.451-.11.727-.565.617-1.015-.11-.451-.565-.727-1.015-.617z"/>
        <path d="m334.638 150.674c-.45.11-.727.565-.617 1.016.111.45.565.727 1.016.616l.054-.013c.451-.11.727-.564.617-1.015s-.564-.727-1.015-.617z"/>
        <path d="m337.475 149.982c-.45.11-.726.564-.616 1.015s.564.727 1.015.617l.054-.013c.451-.11.727-.565.617-1.016-.11-.45-.564-.726-1.015-.616z"/>
        <path d="m340.313 149.289c-.451.11-.727.565-.617 1.016.11.45.564.726 1.015.616l.055-.013c.45-.11.726-.564.616-1.015s-.564-.727-1.015-.617z"/>
        <path d="m343.15 148.597c-.451.11-.727.564-.617 1.015s.564.727 1.015.617l.055-.013c.45-.11.727-.565.617-1.016-.11-.45-.565-.726-1.016-.616z"/>
        <path d="m345.987 147.904c-.451.11-.727.565-.617 1.016.11.45.565.726 1.015.616l.055-.013c.451-.11.727-.564.617-1.015s-.565-.727-1.015-.617z"/>
        <path d="m348.824 147.212c-.451.11-.727.564-.617 1.015s.565.727 1.015.617l.055-.013c.451-.111.727-.565.617-1.016-.11-.45-.565-.727-1.015-.617z"/>
        <path d="m271.07 171.773c-.11-.45.166-.905.616-1.015l.055-.013c.451-.11.905.166 1.015.617.11.45-.166.905-.617 1.015l-.054.013c-.451.11-.905-.166-1.015-.617z"/>
        <path d="m273.907 171.081c-.11-.451.166-.905.617-1.015l.054-.014c.451-.11.905.166 1.015.617s-.166.905-.616 1.015l-.055.014c-.451.11-.905-.167-1.015-.617z"/>
        <path d="m276.744 170.388c-.11-.45.166-.905.617-1.015l.054-.013c.451-.11.906.166 1.016.617.11.45-.167.905-.617 1.015l-.055.013c-.451.11-.905-.166-1.015-.617z"/>
        <path d="m279.581 169.696c-.11-.451.166-.906.617-1.016l.054-.013c.451-.11.906.166 1.016.617s-.166.905-.617 1.015l-.055.013c-.45.111-.905-.166-1.015-.616z"/>
        <path d="m282.418 169.003c-.11-.451.166-.905.617-1.015l.055-.013c.45-.11.905.166 1.015.616.11.451-.166.906-.617 1.016l-.055.013c-.45.11-.905-.166-1.015-.617z"/>
        <path d="m285.255 168.311c-.11-.451.167-.906.617-1.016l.055-.013c.45-.11.905.166 1.015.617s-.166.905-.617 1.015l-.054.013c-.451.11-.906-.166-1.016-.616z"/>
        <path d="m288.093 167.618c-.11-.451.166-.905.616-1.015l.055-.013c.451-.11.905.166 1.015.616.11.451-.166.906-.617 1.016l-.054.013c-.451.11-.905-.166-1.015-.617z"/>
        <path d="m290.93 166.926c-.11-.451.166-.906.617-1.016l.054-.013c.451-.11.905.166 1.015.617s-.166.905-.617 1.015l-.054.013c-.451.11-.905-.166-1.015-.616z"/>
        <path d="m293.767 166.233c-.11-.451.166-.905.617-1.015l.054-.014c.451-.11.905.167 1.015.617.11.451-.166.905-.616 1.016l-.055.013c-.451.11-.905-.166-1.015-.617z"/>
        <path d="m296.604 165.54c-.11-.45.166-.905.617-1.015l.054-.013c.451-.11.906.166 1.016.617.11.45-.167.905-.617 1.015l-.055.013c-.45.11-.905-.166-1.015-.617z"/>
        <path d="m299.441 164.848c-.11-.451.166-.905.617-1.015l.055-.014c.45-.11.905.167 1.015.617.11.451-.166.905-.617 1.015l-.055.014c-.45.11-.905-.166-1.015-.617z"/>
        <path d="m302.278 164.155c-.11-.45.167-.905.617-1.015l.055-.013c.45-.11.905.166 1.015.617.11.45-.166.905-.617 1.015l-.054.013c-.451.11-.906-.166-1.016-.617z"/>
        <path d="m305.116 163.463c-.111-.451.166-.905.616-1.015l.055-.014c.451-.11.905.166 1.015.617s-.166.905-.617 1.015l-.054.014c-.451.11-.905-.166-1.015-.617z"/>
        <path d="m307.953 162.77c-.11-.45.166-.905.616-1.015l.055-.013c.451-.11.905.166 1.015.617.11.45-.166.905-.617 1.015l-.054.013c-.451.11-.905-.166-1.015-.617z"/>
        <path d="m310.79 162.078c-.11-.451.166-.905.617-1.015l.054-.014c.451-.11.905.166 1.015.617s-.166.905-.616 1.015l-.055.014c-.451.11-.905-.167-1.015-.617z"/>
        <path d="m313.627 161.385c-.11-.45.166-.905.617-1.015l.054-.013c.451-.11.906.166 1.016.617.11.45-.167.905-.617 1.015l-.055.013c-.451.11-.905-.166-1.015-.617z"/>
        <path d="m316.464 160.693c-.11-.451.166-.905.617-1.015l.055-.014c.45-.11.905.166 1.015.617s-.166.905-.617 1.015l-.055.014c-.45.11-.905-.167-1.015-.617z"/>
        <path d="m319.301 160c-.11-.45.166-.905.617-1.015l.055-.013c.45-.11.905.166 1.015.616.11.451-.166.906-.617 1.016l-.055.013c-.45.11-.905-.166-1.015-.617z"/>
        <path d="m322.138 159.308c-.11-.451.167-.906.617-1.016l.055-.013c.45-.11.905.166 1.015.617s-.166.905-.617 1.015l-.054.013c-.451.11-.906-.166-1.016-.616z"/>
        <path d="m324.976 158.615c-.11-.451.166-.905.616-1.015l.055-.013c.451-.11.905.166 1.015.616.11.451-.166.906-.617 1.016l-.054.013c-.451.11-.905-.166-1.015-.617z"/>
        <path d="m327.813 157.923c-.11-.451.166-.906.617-1.016l.054-.013c.451-.11.905.166 1.015.617s-.166.905-.617 1.015l-.054.013c-.451.11-.905-.166-1.015-.616z"/>
        <path d="m330.65 157.23c-.11-.451.166-.905.617-1.015l.054-.013c.451-.11.905.166 1.015.616.11.451-.166.906-.616 1.016l-.055.013c-.451.11-.905-.166-1.015-.617z"/>
        <path d="m333.487 156.538c-.11-.451.166-.906.617-1.016l.054-.013c.451-.11.906.166 1.016.617.11.45-.167.905-.617 1.015l-.055.013c-.45.11-.905-.166-1.015-.616z"/>
        <path d="m336.324 155.845c-.11-.451.166-.905.617-1.015l.055-.014c.45-.11.905.167 1.015.617.11.451-.166.905-.617 1.015l-.055.014c-.45.11-.905-.166-1.015-.617z"/>
        <path d="m339.161 155.152c-.11-.45.167-.905.617-1.015l.055-.013c.45-.11.905.166 1.015.617.11.45-.166.905-.617 1.015l-.054.013c-.451.11-.906-.166-1.016-.617z"/>
        <path d="m341.999 154.46c-.11-.451.166-.905.616-1.015l.055-.014c.451-.11.905.167 1.015.617.11.451-.166.905-.617 1.015l-.054.014c-.451.11-.905-.166-1.015-.617z"/>
        <path d="m344.836 153.767c-.11-.45.166-.905.616-1.015l.055-.013c.451-.11.905.166 1.015.617.11.45-.166.905-.617 1.015l-.054.013c-.451.11-.905-.166-1.015-.617z"/>
        <path d="m347.673 153.075c-.11-.451.166-.905.617-1.015l.054-.014c.451-.11.905.166 1.015.617s-.166.905-.616 1.015l-.055.014c-.451.11-.905-.166-1.015-.617z"/>
        <path d="m350.51 152.382c-.11-.45.166-.905.617-1.015l.054-.013c.451-.11.906.166 1.016.617.11.45-.167.905-.617 1.015l-.055.013c-.451.11-.905-.166-1.015-.617z"/>
        <path d="m353.347 151.69c-.11-.451.166-.905.617-1.015l.055-.014c.45-.11.905.166 1.015.617s-.166.905-.617 1.015l-.055.014c-.45.11-.905-.167-1.015-.617z"/>
        <path d="m356.184 150.997c-.11-.45.166-.905.617-1.015l.055-.013c.45-.11.905.166 1.015.617.11.45-.166.905-.617 1.015l-.055.013c-.45.11-.905-.166-1.015-.617z"/>
        <path d="m359.021 150.305c-.11-.451.167-.905.617-1.015l.055-.014c.45-.11.905.166 1.015.617s-.166.905-.617 1.015l-.054.014c-.451.11-.906-.167-1.016-.617z"/>
        <path d="m282.49 172.835c-.451.11-.727.565-.617 1.016.11.45.565.727 1.015.617l.055-.014c.451-.11.727-.564.617-1.015s-.565-.727-1.015-.617z"/>
        <path d="m285.327 172.143c-.45.11-.727.564-.617 1.015s.565.727 1.016.617l.054-.013c.451-.11.727-.565.617-1.016-.11-.45-.565-.726-1.015-.616z"/>
        <path d="m288.164 171.45c-.45.11-.726.565-.616 1.016.11.45.564.726 1.015.616l.054-.013c.451-.11.727-.564.617-1.015s-.564-.727-1.015-.617z"/>
        <path d="m291.002 170.758c-.451.11-.727.564-.617 1.015s.564.727 1.015.617l.054-.013c.451-.11.727-.565.617-1.016-.11-.45-.564-.726-1.015-.616z"/>
        <path d="m293.839 170.065c-.451.11-.727.565-.617 1.016.11.45.564.726 1.015.616l.055-.013c.45-.11.726-.564.616-1.015s-.564-.727-1.015-.617z"/>
        <path d="m296.676 169.373c-.451.11-.727.564-.617 1.015s.565.727 1.015.617l.055-.013c.45-.11.727-.565.617-1.016-.11-.45-.565-.727-1.016-.617z"/>
        <path d="m299.513 168.68c-.451.11-.727.565-.617 1.015.11.451.565.727 1.015.617l.055-.013c.451-.11.727-.565.617-1.015-.11-.451-.565-.727-1.015-.617z"/>
        <path d="m302.35 167.988c-.451.11-.727.564-.617 1.015s.565.727 1.016.617l.054-.014c.451-.11.727-.564.617-1.015-.11-.45-.565-.727-1.015-.617z"/>
        <path d="m305.187 167.295c-.45.11-.727.565-.617 1.015.11.451.565.727 1.016.617l.054-.013c.451-.11.727-.565.617-1.015-.11-.451-.564-.727-1.015-.617z"/>
        <path d="m308.024 166.603c-.45.11-.726.564-.616 1.015s.564.727 1.015.617l.054-.014c.451-.11.727-.564.617-1.015s-.564-.727-1.015-.617z"/>
        <path d="m310.862 165.91c-.451.11-.727.565-.617 1.015.11.451.564.727 1.015.617l.055-.013c.45-.11.726-.565.616-1.015-.11-.451-.564-.727-1.015-.617z"/>
        <path d="m313.699 165.218c-.451.11-.727.564-.617 1.015.11.45.564.727 1.015.617l.055-.014c.45-.11.727-.564.617-1.015s-.565-.727-1.016-.617z"/>
        <path d="m316.536 164.525c-.451.11-.727.565-.617 1.015.11.451.565.727 1.015.617l.055-.013c.451-.11.727-.565.617-1.015-.11-.451-.565-.727-1.016-.617z"/>
        <path d="m319.373 163.833c-.451.11-.727.564-.617 1.015.11.45.565.727 1.015.617l.055-.014c.451-.11.727-.564.617-1.015s-.565-.727-1.015-.617z"/>
        <path d="m322.21 163.14c-.45.11-.727.565-.617 1.015.11.451.565.727 1.016.617l.054-.013c.451-.11.727-.565.617-1.016-.11-.45-.565-.726-1.015-.616z"/>
        <path d="m325.047 162.447c-.45.11-.726.565-.616 1.016.11.45.564.726 1.015.616l.054-.013c.451-.11.727-.564.617-1.015s-.564-.727-1.015-.617z"/>
        <path d="m327.885 161.755c-.451.11-.727.564-.617 1.015s.564.727 1.015.617l.054-.013c.451-.11.727-.565.617-1.016-.11-.45-.564-.726-1.015-.616z"/>
        <path d="m330.722 161.062c-.451.11-.727.565-.617 1.016.11.45.564.726 1.015.616l.055-.013c.45-.11.726-.564.616-1.015s-.564-.727-1.015-.617z"/>
        <path d="m333.559 160.37c-.451.11-.727.564-.617 1.015s.565.727 1.015.617l.055-.013c.45-.11.727-.565.617-1.016-.11-.45-.565-.726-1.016-.616z"/>
        <path d="m336.396 159.677c-.451.11-.727.565-.617 1.016.11.45.565.726 1.015.616l.055-.013c.451-.11.727-.564.617-1.015s-.565-.727-1.015-.617z"/>
        <path d="m339.233 158.985c-.451.11-.727.564-.617 1.015s.565.727 1.016.617l.054-.014c.451-.11.727-.564.617-1.015-.11-.45-.565-.727-1.015-.617z"/>
        <path d="m342.07 158.292c-.45.11-.727.565-.617 1.015.11.451.565.727 1.016.617l.054-.013c.451-.11.727-.565.617-1.015-.11-.451-.564-.727-1.015-.617z"/>
        <path d="m344.907 157.6c-.45.11-.726.564-.616 1.015s.564.727 1.015.617l.054-.014c.451-.11.727-.564.617-1.015-.11-.45-.564-.727-1.015-.617z"/>
        <path d="m347.745 156.907c-.451.11-.727.565-.617 1.015.11.451.564.727 1.015.617l.055-.013c.45-.11.726-.565.616-1.015-.11-.451-.564-.727-1.015-.617z"/>
        <path d="m350.582 156.215c-.451.11-.727.564-.617 1.015s.564.727 1.015.617l.055-.014c.45-.11.727-.564.617-1.015s-.565-.727-1.016-.617z"/>
        <path d="m353.419 155.522c-.451.11-.727.565-.617 1.015.11.451.565.727 1.015.617l.055-.013c.451-.11.727-.565.617-1.015-.11-.451-.565-.727-1.016-.617z"/>
        <path d="m356.256 154.83c-.451.11-.727.564-.617 1.015.11.45.565.727 1.015.617l.055-.014c.451-.11.727-.564.617-1.015s-.565-.727-1.015-.617z"/>
        <path d="m359.093 154.137c-.45.11-.727.565-.617 1.015.11.451.565.727 1.016.617l.054-.013c.451-.11.727-.565.617-1.015-.11-.451-.565-.727-1.015-.617z"/>
        <path d="m361.93 153.445c-.45.11-.726.564-.616 1.015.11.45.564.727 1.015.617l.054-.014c.451-.11.727-.564.617-1.015s-.564-.727-1.015-.617z"/>
        <path d="m364.768 152.752c-.451.11-.727.565-.617 1.015.11.451.564.727 1.015.617l.054-.013c.451-.11.727-.565.617-1.016-.11-.45-.564-.726-1.015-.616z"/>
        <path d="m367.605 152.059c-.451.11-.727.565-.617 1.016.11.45.564.726 1.015.616l.055-.013c.45-.11.726-.564.616-1.015s-.564-.727-1.015-.617z"/>
        <path d="m370.442 151.367c-.451.11-.727.564-.617 1.015s.565.727 1.015.617l.055-.013c.45-.11.727-.565.617-1.016-.11-.45-.565-.726-1.016-.616z"/>
        <path d="m295.516 175.236c-.11-.451.166-.905.616-1.015l.055-.014c.451-.11.905.167 1.015.617.11.451-.166.905-.617 1.016l-.054.013c-.451.11-.905-.166-1.015-.617z"/>
        <path d="m298.353 174.543c-.11-.45.166-.905.617-1.015l.054-.013c.451-.11.905.166 1.015.617.11.45-.166.905-.616 1.015l-.055.013c-.451.11-.905-.166-1.015-.617z"/>
        <path d="m301.19 173.851c-.11-.451.166-.905.617-1.015l.054-.014c.451-.11.906.167 1.016.617.11.451-.167.905-.617 1.015l-.055.014c-.451.11-.905-.166-1.015-.617z"/>
        <path d="m304.027 173.158c-.11-.45.166-.905.617-1.015l.054-.013c.451-.11.906.166 1.016.617.11.45-.166.905-.617 1.015l-.055.013c-.45.11-.905-.166-1.015-.617z"/>
        <path d="m306.864 172.466c-.11-.451.166-.905.617-1.015l.055-.014c.45-.11.905.166 1.015.617s-.166.905-.617 1.015l-.055.014c-.45.11-.905-.166-1.015-.617z"/>
        <path d="m309.701 171.773c-.11-.45.167-.905.617-1.015l.055-.013c.45-.11.905.166 1.015.617.11.45-.166.905-.617 1.015l-.054.013c-.451.11-.906-.166-1.016-.617z"/>
        <path d="m312.539 171.081c-.11-.451.166-.905.616-1.015l.055-.014c.451-.11.905.166 1.015.617s-.166.905-.617 1.015l-.054.014c-.451.11-.905-.167-1.015-.617z"/>
        <path d="m315.376 170.388c-.11-.45.166-.905.617-1.015l.054-.013c.451-.11.905.166 1.015.617.11.45-.166.905-.617 1.015l-.054.013c-.451.11-.905-.166-1.015-.617z"/>
        <path d="m318.213 169.696c-.11-.451.166-.905.617-1.015l.054-.014c.451-.11.905.166 1.015.617s-.166.905-.616 1.015l-.055.014c-.451.11-.905-.167-1.015-.617z"/>
        <path d="m321.05 169.003c-.11-.45.166-.905.617-1.015l.054-.013c.451-.11.906.166 1.016.616.11.451-.167.906-.617 1.016l-.055.013c-.45.11-.905-.166-1.015-.617z"/>
        <path d="m323.887 168.311c-.11-.451.166-.906.617-1.016l.055-.013c.45-.11.905.166 1.015.617s-.166.905-.617 1.015l-.055.013c-.45.11-.905-.166-1.015-.616z"/>
        <path d="m326.724 167.618c-.11-.451.167-.905.617-1.015l.055-.013c.45-.11.905.166 1.015.616.11.451-.166.906-.617 1.016l-.054.013c-.451.11-.906-.166-1.016-.617z"/>
        <path d="m329.562 166.926c-.111-.451.166-.906.616-1.016l.055-.013c.451-.11.905.166 1.015.617s-.166.905-.617 1.015l-.054.013c-.451.11-.905-.166-1.015-.616z"/>
        <path d="m332.399 166.233c-.11-.451.166-.905.617-1.015l.054-.013c.451-.11.905.166 1.015.616.11.451-.166.906-.617 1.016l-.054.013c-.451.11-.905-.166-1.015-.617z"/>
        <path d="m335.236 165.541c-.11-.451.166-.906.617-1.016l.054-.013c.451-.11.905.166 1.015.617.11.45-.166.905-.616 1.015l-.055.013c-.451.11-.905-.166-1.015-.616z"/>
        <path d="m338.073 164.848c-.11-.451.166-.905.617-1.015l.054-.014c.451-.11.906.167 1.016.617.11.451-.167.905-.617 1.015l-.055.014c-.45.11-.905-.166-1.015-.617z"/>
        <path d="m340.91 164.155c-.11-.45.166-.905.617-1.015l.055-.013c.45-.11.905.166 1.015.617.11.45-.166.905-.617 1.015l-.055.013c-.45.11-.905-.166-1.015-.617z"/>
        <path d="m343.747 163.463c-.11-.451.166-.905.617-1.015l.055-.014c.45-.11.905.167 1.015.617.11.451-.166.905-.617 1.015l-.055.014c-.45.11-.905-.166-1.015-.617z"/>
        <path d="m346.584 162.77c-.11-.45.167-.905.617-1.015l.055-.013c.451-.11.905.166 1.015.617.11.45-.166.905-.617 1.015l-.054.013c-.451.11-.906-.166-1.016-.617z"/>
        <path d="m349.422 162.078c-.11-.451.166-.905.616-1.015l.055-.014c.451-.11.905.166 1.015.617s-.166.905-.617 1.015l-.054.014c-.451.11-.905-.166-1.015-.617z"/>
        <path d="m352.259 161.385c-.11-.45.166-.905.617-1.015l.054-.013c.451-.11.905.166 1.015.617.11.45-.166.905-.616 1.015l-.055.013c-.451.11-.905-.166-1.015-.617z"/>
        <path d="m355.096 160.693c-.11-.451.166-.905.617-1.015l.054-.014c.451-.11.906.166 1.016.617s-.167.905-.617 1.015l-.055.014c-.451.11-.905-.167-1.015-.617z"/>
        <path d="m357.933 160c-.11-.45.166-.905.617-1.015l.054-.013c.451-.11.906.166 1.016.617.11.45-.166.905-.617 1.015l-.055.013c-.45.11-.905-.166-1.015-.617z"/>
        <path d="m360.77 159.308c-.11-.451.166-.905.617-1.015l.055-.014c.45-.11.905.166 1.015.617s-.166.905-.617 1.015l-.055.014c-.45.11-.905-.167-1.015-.617z"/>
        <path d="m363.607 158.615c-.11-.451.167-.905.617-1.015l.055-.013c.45-.11.905.166 1.015.616.11.451-.166.906-.617 1.016l-.054.013c-.451.11-.906-.166-1.016-.617z"/>
        <path d="m366.445 157.923c-.11-.451.166-.906.616-1.016l.055-.013c.451-.11.905.166 1.015.617s-.166.905-.617 1.015l-.054.013c-.451.11-.905-.166-1.015-.616z"/>
        <path d="m369.282 157.23c-.11-.451.166-.905.616-1.015l.055-.013c.451-.11.905.166 1.015.616.11.451-.166.906-.617 1.016l-.054.013c-.451.11-.905-.166-1.015-.617z"/>
        <path d="m372.119 156.538c-.11-.451.166-.906.617-1.016l.054-.013c.451-.11.905.166 1.015.617s-.166.905-.616 1.015l-.055.013c-.451.11-.905-.166-1.015-.616z"/>
        <path d="m374.956 155.845c-.11-.451.166-.905.617-1.015l.054-.013c.451-.11.906.166 1.016.616.11.451-.167.906-.617 1.016l-.055.013c-.45.11-.905-.166-1.015-.617z"/>
        <path d="m301.268 177.684c-.451.11-.727.564-.617 1.015.11.45.564.727 1.015.617l.054-.014c.451-.11.727-.564.617-1.015s-.564-.727-1.015-.617z"/>
        <path d="m304.105 176.991c-.451.11-.727.565-.617 1.015.11.451.564.727 1.015.617l.055-.013c.45-.11.726-.565.616-1.016-.11-.45-.564-.726-1.015-.616z"/>
        <path d="m306.942 176.298c-.451.11-.727.565-.617 1.016.11.45.565.726 1.015.616l.055-.013c.45-.11.727-.564.617-1.015s-.565-.727-1.016-.617z"/>
        <path d="m309.779 175.606c-.451.11-.727.564-.617 1.015s.565.727 1.015.617l.055-.013c.451-.11.727-.565.617-1.016-.11-.45-.565-.726-1.015-.616z"/>
        <path d="m312.616 174.913c-.451.11-.727.565-.617 1.016.11.45.565.726 1.016.616l.054-.013c.451-.11.727-.564.617-1.015s-.565-.727-1.015-.617z"/>
        <path d="m315.453 174.221c-.45.11-.727.564-.617 1.015s.565.727 1.016.617l.054-.013c.451-.11.727-.565.617-1.016-.11-.45-.564-.726-1.015-.616z"/>
        <path d="m318.29 173.528c-.45.11-.726.565-.616 1.016.11.45.564.726 1.015.616l.054-.013c.451-.11.727-.564.617-1.015s-.564-.727-1.015-.617z"/>
        <path d="m321.128 172.836c-.451.11-.727.564-.617 1.015s.564.727 1.015.617l.055-.014c.45-.11.726-.564.616-1.015-.11-.45-.564-.727-1.015-.617z"/>
        <path d="m323.965 172.143c-.451.11-.727.565-.617 1.015.11.451.564.727 1.015.617l.055-.013c.45-.11.727-.565.617-1.015-.11-.451-.565-.727-1.016-.617z"/>
        <path d="m326.802 171.451c-.451.11-.727.564-.617 1.015s.565.727 1.015.617l.055-.014c.451-.11.727-.564.617-1.015-.11-.45-.565-.727-1.016-.617z"/>
        <path d="m329.639 170.758c-.451.11-.727.565-.617 1.015.11.451.565.727 1.015.617l.055-.013c.451-.11.727-.565.617-1.015-.11-.451-.565-.727-1.015-.617z"/>
        <path d="m332.476 170.066c-.45.11-.727.564-.617 1.015s.565.727 1.016.617l.054-.014c.451-.11.727-.564.617-1.015s-.565-.727-1.015-.617z"/>
        <path d="m335.313 169.373c-.45.11-.726.565-.616 1.015.11.451.564.727 1.015.617l.054-.013c.451-.11.727-.565.617-1.015-.11-.451-.564-.727-1.015-.617z"/>
        <path d="m338.151 168.681c-.451.11-.727.564-.617 1.015.11.45.564.727 1.015.617l.054-.014c.451-.11.727-.564.617-1.015s-.564-.727-1.015-.617z"/>
        <path d="m340.988 167.988c-.451.11-.727.565-.617 1.015.11.451.564.727 1.015.617l.055-.013c.45-.11.726-.565.616-1.015-.11-.451-.564-.727-1.015-.617z"/>
        <path d="m343.825 167.295c-.451.111-.727.565-.617 1.016.11.45.565.727 1.015.617l.055-.014c.45-.11.727-.564.617-1.015s-.565-.727-1.016-.617z"/>
        <path d="m346.662 166.603c-.451.11-.727.564-.617 1.015s.565.727 1.015.617l.055-.013c.451-.11.727-.565.617-1.016-.11-.45-.565-.726-1.015-.616z"/>
        <path d="m349.499 165.91c-.45.11-.727.565-.617 1.016.11.45.565.726 1.016.616l.054-.013c.451-.11.727-.564.617-1.015s-.565-.727-1.015-.617z"/>
        <path d="m352.336 165.218c-.45.11-.726.564-.616 1.015s.564.727 1.015.617l.054-.013c.451-.11.727-.565.617-1.016-.11-.45-.564-.726-1.015-.616z"/>
        <path d="m355.174 164.525c-.451.11-.727.565-.617 1.016.11.45.564.726 1.015.616l.054-.013c.451-.11.727-.564.617-1.015s-.564-.727-1.015-.617z"/>
        <path d="m358.011 163.833c-.451.11-.727.564-.617 1.015s.564.727 1.015.617l.055-.013c.45-.11.726-.565.616-1.016-.11-.45-.564-.726-1.015-.616z"/>
        <path d="m360.848 163.14c-.451.11-.727.565-.617 1.015.11.451.565.727 1.015.617l.055-.013c.45-.11.727-.565.617-1.015-.11-.451-.565-.727-1.016-.617z"/>
        <path d="m363.685 162.448c-.451.11-.727.564-.617 1.015s.565.727 1.015.617l.055-.014c.451-.11.727-.564.617-1.015-.11-.45-.565-.727-1.015-.617z"/>
        <path d="m366.522 161.755c-.451.11-.727.565-.617 1.015.11.451.565.727 1.016.617l.054-.013c.451-.11.727-.565.617-1.015-.11-.451-.565-.727-1.015-.617z"/>
        <path d="m369.359 161.063c-.45.11-.727.564-.617 1.015s.565.727 1.016.617l.054-.014c.451-.11.727-.564.617-1.015-.11-.45-.564-.727-1.015-.617z"/>
        <path d="m372.196 160.37c-.45.11-.726.565-.616 1.015.11.451.564.727 1.015.617l.054-.013c.451-.11.727-.565.617-1.015-.11-.451-.564-.727-1.015-.617z"/>
        <path d="m375.034 159.678c-.451.11-.727.564-.617 1.015s.564.727 1.015.617l.055-.014c.45-.11.726-.564.616-1.015s-.564-.727-1.015-.617z"/>
        <path d="m377.871 158.985c-.451.11-.727.565-.617 1.015.11.451.564.727 1.015.617l.055-.013c.45-.11.727-.565.617-1.015-.11-.451-.565-.727-1.016-.617z"/>
        <path d="m380.708 158.293c-.451.11-.727.564-.617 1.015.11.45.565.727 1.015.617l.055-.014c.451-.11.727-.564.617-1.015s-.565-.727-1.016-.617z"/>
        <path d="m383.545 157.6c-.451.11-.727.565-.617 1.015.11.451.565.727 1.015.617l.055-.013c.451-.11.727-.565.617-1.015-.11-.451-.565-.727-1.015-.617z"/>
        <path d="m386.382 156.907c-.45.11-.727.565-.617 1.016.11.45.565.727 1.016.617l.054-.014c.451-.11.727-.564.617-1.015s-.565-.727-1.015-.617z"/>
        <path d="m389.219 156.215c-.45.11-.726.564-.616 1.015s.564.727 1.015.617l.054-.013c.451-.11.727-.565.617-1.016-.11-.45-.564-.726-1.015-.616z"/>
      </g>
      <path d="m320.743 178.591 88.071-21.415-20.402-4.947c-.896.53-2.301.872-3.881.872-2.546 0-4.638-.887-4.877-2.022-.015-.072-.023-.144-.023-.218 0-.245.087-.481.246-.702l-78.032-18.925-58.338 14.185 8.859.727 49.479-12.031 75.284 18.258c.596 1.424 1.948 2.242 2.773 2.619 1.329.607 2.968.909 4.629.909 1.449 0 2.918-.231 4.178-.719l8.24 1.998-44.865 10.909z" fill="#ffe1df"/>
      <path clip-rule="evenodd" d="m322.845 177.887 77.835-20.657-12.429-3.39c-4.896 2.448-10.546-.188-10.358-3.201l-77.355-19.088 1.307-.318 78.032 18.925c-.159.221-.246.457-.246.703 0 .073.008.146.023.217.239 1.135 2.332 2.023 4.877 2.023 1.58 0 2.986-.342 3.882-.873l20.401 4.948-88.07 21.415z" fill="#fff" fill-rule="evenodd"/>
      <ellipse cx="269.985" cy="157.419" fill="url(#u)" rx="43.3141" ry="15.2541"/>
      <path d="m263.77 131.101c-21.063-21.053-21.063-55.1868 0-76.2396l36.643-36.6247c.826-.8256 2.165-.8256 2.991 0l36.642 36.6247c21.063 21.0529 21.063 55.1866 0 76.2396-21.063 21.052-55.213 21.052-76.276 0z" fill="#c6e3ff"/>
      <path d="m342.678 121.604c-1.747 2.551-3.753 4.978-6.019 7.243-9.579 9.578-22.038 14.519-34.589 14.824-12.545-.31-24.996-5.251-34.57-14.823-19.787-19.786-19.787-51.864 0-71.6493l.909-.9091c-10.549 19.2373-7.674 43.8724 8.623 60.1684 17.89 17.888 45.829 19.603 65.646 5.146z" fill="#1433d6"/>
      <path clip-rule="evenodd" d="m325.075 80.3868c.251-.2484.251-.6512 0-.8996l-2.729-2.6987c-.251-.2484-.658-.2484-.91 0l-4.548 4.4978c-.251.2485-.251.6512 0 .8996l2.729 2.6987c.251.2484.659.2484.91 0zm-21.377-7.647c-1.004-.9936-2.634-.9936-3.638 0l-14.555 14.393c-1.005.9936-1.005 2.6046 0 3.5983l14.555 14.3929c1.005.994 2.634.994 3.638 0l14.555-14.3929c1.005-.9937 1.005-2.6047 0-3.5983zm-11.368 28.3362c.251.249.251.652 0 .9l-4.548 4.498c-.251.248-.659.248-.91 0l-2.729-2.699c-.251-.248-.251-.651 0-.899l4.549-4.4983c.251-.2484.658-.2484.909 0zm5.457 6.298c.251-.249.251-.652 0-.9l-2.729-2.699c-.251-.248-.658-.248-.909 0l-4.549 4.498c-.251.249-.251.651 0 .9l2.729 2.698c.251.249.659.249.91 0zm21.832-14.393c.251-.2484.659-.2484.91 0l4.548 4.4979c.251.2484.251.6511 0 .8995l-2.729 2.6986c-.251.249-.658.249-.91 0l-4.548-4.4977c-.251-.2484-.251-.6512 0-.8996zm-26.381-26.9873c-.251-.2484-.659-.2484-.91 0l-2.729 2.6987c-.251.2484-.251.6511 0 .8996l4.548 4.4978c.252.2484.659.2484.91 0l2.729-2.6987c.251-.2484.251-.6512 0-.8996zm26.38 8.0961c.251.2485.251.6512 0 .8996l-4.548 4.4978c-.251.2484-.659.2484-.91 0l-2.729-2.6987c-.251-.2484-.251-.6511 0-.8995l4.548-4.4978c.252-.2485.659-.2485.91 0zm-5.454-4.4975c.251-.2484.251-.6512 0-.8996l-2.729-2.6987c-.251-.2484-.658-.2484-.909 0l-4.549 4.4979c-.251.2484-.251.6511 0 .8995l2.729 2.6987c.251.2484.659.2484.91 0zm-27.291 26.0873c.251.2484.251.6511 0 .8995l-4.548 4.4979c-.251.248-.659.248-.91 0l-2.729-2.6987c-.251-.2484-.251-.6512 0-.8996l4.549-4.4978c.251-.2484.658-.2484.909 0zm28.196 2.6991c-.252-.2485-.659-.2485-.91 0l-2.729 2.6983c-.251.249-.251.651 0 .9l4.548 4.498c.252.248.659.248.91 0l2.729-2.699c.251-.248.251-.651 0-.9zm-6.367 5.3973c.251-.249.659-.249.91 0l4.548 4.498c.251.248.251.651 0 .899l-2.729 2.699c-.251.248-.658.248-.91 0l-4.548-4.498c-.251-.248-.251-.651 0-.9zm-20.921-32.3849c-.251-.2484-.659-.2484-.91 0l-2.729 2.6987c-.251.2484-.251.6511 0 .8995l4.548 4.4978c.252.2484.659.2484.91 0l2.729-2.6986c.251-.2485.251-.6512 0-.8996zm-6.367 5.3966c.251-.2484.659-.2484.91 0l4.548 4.4978c.251.2484.251.6512 0 .8996l-2.729 2.6987c-.251.2484-.658.2484-.91 0l-4.548-4.4979c-.251-.2484-.251-.6511 0-.8995zm31.528 9.3228c-.03-.0292-.077-.0292-.107 0l-2.87 2.8381c-.03.0293-.03.0767 0 .106l2.87 2.8381c.03.0292.077.0292.107 0l2.87-2.8381c.03-.0293.03-.0767 0-.106zm-5.54-5.4768c-.029-.0292-.077-.0292-.107 0l-2.87 2.8381c-.029.0293-.029.0767 0 .106l2.87 2.8381c.03.0292.078.0292.107 0l2.87-2.8381c.03-.0293.03-.0767 0-.106zm-5.647-5.4772c.03-.0293.078-.0293.108 0l2.87 2.8381c.029.0292.029.0766 0 .1059l-2.87 2.8381c-.03.0292-.078.0292-.108 0l-2.87-2.8381c-.029-.0293-.029-.0767 0-.1059zm-5.359 5.4065c-.029-.0293-.077-.0293-.107 0l-2.87 2.8381c-.029.0292-.029.0767 0 .1059l2.87 2.8381c.03.0293.078.0293.107 0l2.87-2.8381c.03-.0292.03-.0767 0-.1059zm-5.573 5.4068c.03-.0293.078-.0293.107 0l2.87 2.8381c.03.0292.03.0766 0 .1059l-2.87 2.8381c-.029.0292-.077.0292-.107 0l-2.87-2.8381c-.029-.0293-.029-.0767 0-.1059zm11.116.0705c-.029-.0293-.077-.0293-.107 0l-2.87 2.8381c-.03.0292-.03.0766 0 .1059l2.87 2.8381c.03.0292.078.0292.107 0l2.87-2.8381c.03-.0293.03-.0767 0-.1059zm-5.576 5.406c.029-.0293.077-.0293.107 0l2.87 2.8381c.03.0292.03.0767 0 .1059l-2.87 2.8381c-.03.0293-.078.0293-.107 0l-2.87-2.8381c-.03-.0292-.03-.0767 0-.1059zm11.113.071c-.03-.0293-.078-.0293-.107 0l-2.87 2.8381c-.03.0292-.03.0767 0 .1059l2.87 2.8381c.029.0293.077.0293.107 0l2.87-2.8381c.029-.0292.029-.0767 0-.1059zm-5.573 5.4063c.029-.0293.077-.0293.107 0l2.87 2.8381c.029.0292.029.0766 0 .1059l-2.87 2.8384c-.03.029-.078.029-.107 0l-2.87-2.8384c-.03-.0293-.03-.0767 0-.1059z" fill="#1433d6" fill-rule="evenodd"/>
      <path d="m289.194 32.4821c4.52-3.3111 8.664-6.8892 8.664-6.8892.79-.7931 3.585-2.3298 4.143-.565 0 0 7.72 22.753 31.825 37.6645 24.106 14.9114 13.453 55.3666 15.815 48.9636 6.779-18.3825 2.808-39.8505-11.915-54.6182l-35.075-35.1815c-.791-.7931-2.073-.7931-2.863 0 0 0-15.114 13.9368-10.594 10.6258z" fill="#fff"/>
      <path d="m281.997 46.2331c-1.966 3.0639-3.932 6.7286-5.333 5.83s-.943-4.1109 1.023-7.1748 4.695-4.8193 6.095-3.9207c1.401.8986.18 2.2016-1.785 5.2655z" fill="#fff"/>
      <path d="m332.119 110.217c3.773-6.534 7.488-14.3123 10.475-12.5877 2.988 1.7247 2.351 8.4197-1.422 14.9537-3.772 6.535-9.252 10.434-12.239 8.709-2.987-1.724-.586-4.541 3.186-11.075z" fill="#fff"/>
      <path d="m130.157 218.296s127.18 21.566 245.002.45c0 0-69.772 8.007-137.514-21.034-30.257-13.368-63.983-31.806-58.732-.45-25.394-20.266-104.6099-38.146-48.756 21.034z" fill="#fff"/>
      <path d="m414.799 197.52c28.297 14.656 86.023 5.576 102.165-2.444 0 0-26.654 5.264-51.957-3.385-11.763-4.019-36.827-10.42-21.911 1.738-8.11-3.308-56.594-10.564-28.297 4.091z" fill="#fff"/>
      <path d="m577.761 276.43-108.038-308.3493-5.542-2.4145 9.417 265.8118z" fill="url(#v)"/>
      <path d="m445.208 217.763 12.872-253.6812-15.863-6.9119-70.577 228.9741z" fill="url(#v)"/>
      <path d="m367.71-76.3687-168.527 187.8697-65.543-28.1504 204.862-172.4458z" fill="url(#v)"/>
      <path d="m288.502 149.919 116.207-210.1662-11.176-4.8697-146.789 196.6959z" fill="url(#v)"/>
      <path d="m324.501 28.9208-.498-6.1214-.498-6.1215-.538 6.1162-.538 6.1161c-.245 2.7886-1.474 5.2869-3.343 7.1448-1.87 1.8578-4.375 3.0735-7.165 3.3028l-6.121.4976-6.12.4976 6.115.5385 6.116.5385c2.788.2455 5.286 1.4751 7.144 3.3446 1.858 1.8696 3.074 4.3752 3.304 7.1653l.498 6.1214.498 6.1214.538-6.1161.538-6.1162c.245-2.7886 1.474-5.2868 3.343-7.1447s4.375-3.0735 7.164-3.3028l6.121-.4976 6.121-.4977-6.115-.5384-6.116-.5385c-2.789-.2455-5.287-1.4751-7.145-3.3447-1.858-1.8695-3.073-4.3751-3.303-7.1652z" fill="#fff"/>
      <path d="m338.426 19.9966c-.125 1.1998-.671 2.2711-1.485 3.0593-.815.7882-1.906 1.2972-3.112 1.3782 1.2.1247 2.271.6708 3.059 1.4855s1.297 1.9057 1.379 3.1122c.124-1.1998.67-2.2711 1.485-3.0593.814-.7882 1.905-1.2972 3.111-1.3782-1.199-.1247-2.271-.6709-3.059-1.4856s-1.297-1.9056-1.378-3.1121z" fill="#fff"/>
    </g>
  </g>
</svg>