<?xml version="1.0" encoding="utf-8"?>
<svg xmlns="http://www.w3.org/2000/svg" fill="none" height="608" width="1056">
  <g clip-path="url(#a)">
    <path d="M0 0h1056v608H0z" fill="url(#b)"/>
    <path clip-rule="evenodd" d="M141.782-161.92a4.02 4.02 0 0 0 4.679-3.195l2.882-15.157a3.98 3.98 0 0 0-3.186-4.664c-37.579-6.903-73.093-9.943-106.94-8.845-2.209.072-3.922 1.939-3.828 4.146l.65 15.414c.094 2.207 1.958 3.919 4.166 3.849 31.807-1.013 65.508 1.836 101.577 8.452m-131.367-6.311c2.195-.249 3.796-2.21 3.572-4.408l-1.566-15.349c-.224-2.198-2.188-3.8-4.384-3.552-36.685 4.137-71.32 13.527-104.465 28.445-2.014.907-2.884 3.287-1.955 5.291l6.492 13.996c.93 2.004 3.307 2.873 5.322 1.968 30.722-13.798 62.833-22.516 96.984-26.391m1290.775 40.849c10.72-12.131 19.03-22.36 24.78-29.744 3.11-3.992 5.48-7.154 7.08-9.338.8-1.092 1.41-1.939 1.83-2.523q.3-.44.48-.677l.13-.187.03-.054.02-.017v-.009c0-.001 0-.002-9.62-6.682l-2.12-1.474-5.38-3.737-2.12-1.472-.02.024-.08.126-.15.208c-.07.096-.15.212-.25.346-.36.501-.9 1.264-1.64 2.269a412 412 0 0 1-6.67 8.799c-5.47 7.02-13.44 16.836-23.77 28.524a4.03 4.03 0 0 0 .32 5.658l11.51 10.285a3.984 3.984 0 0 0 5.64-.325m-1030.701 1.01a4.01 4.01 0 0 0 5.116-2.425l5.195-14.528a3.99 3.99 0 0 0-2.422-5.107c-35.691-12.633-69.585-22.751-101.922-30.212a3.98 3.98 0 0 0-4.776 3.014l-3.387 15.052a4.016 4.016 0 0 0 3.021 4.791c31.264 7.22 64.232 17.049 99.175 29.415m-383.661-2.06c1.928-1.08 2.643-3.507 1.586-5.446l-7.385-13.547c-1.057-1.939-3.487-2.657-5.416-1.578-29.883 16.712-58.491 38.132-86.326 64.357a3.977 3.977 0 0 0-.138 5.645l10.661 11.152a4.024 4.024 0 0 0 5.666.138c26.525-24.973 53.489-45.111 81.352-60.721m508.219 52.751c2.013.91 4.384.02 5.298-1.992l6.377-14.049a3.995 3.995 0 0 0-1.991-5.292c-33.962-15.344-66.409-28.971-97.486-40.806a3.99 3.99 0 0 0-5.152 2.325l-5.449 14.434a4.01 4.01 0 0 0 2.326 5.16c30.532 11.628 62.504 25.053 96.077 40.22m884.723-28.52c1.54-1.59 1.47-4.12-.13-5.644l-11.16-10.648a4.013 4.013 0 0 0-5.66.123c-20.6 21.364-46.82 45.957-78.18 70.215-1.74 1.352-2.08 3.861-.74 5.617l9.37 12.256a3.98 3.98 0 0 0 5.6.74c32.49-25.127 59.62-50.579 80.9-72.659M516.417-17.065a4.004 4.004 0 0 0 5.383-1.744l7.017-13.74a4 4 0 0 0-1.745-5.38c-32.795-16.706-64.295-32.165-94.598-46.33a3.995 3.995 0 0 0-5.313 1.935l-6.511 13.988a4.004 4.004 0 0 0 1.937 5.316c30.008 14.028 61.249 29.36 93.83 45.955M-215.911-46.43a4.02 4.02 0 0 0-.107-5.665l-11.095-10.721a3.98 3.98 0 0 0-5.646.105c-11.011 11.542-21.922 23.864-32.766 36.973a3.984 3.984 0 0 0 .552 5.622l11.938 9.774a4.016 4.016 0 0 0 5.637-.554c10.462-12.643 20.948-24.481 31.487-35.534M1173.58-12.868a3.97 3.97 0 0 0 .94-5.57L1165.57-31c-1.28-1.8-3.78-2.218-5.59-.946-27.05 19.038-57.24 37.264-90.34 52.892a4.02 4.02 0 0 0-1.94 5.324l6.49 13.998c.93 2.004 3.31 2.877 5.3 1.934 34.58-16.315 66.03-35.309 94.09-55.07M543.55-3.114A4860 4860 0 0 1 589.971 21.3c16.609 8.845 33.028 16.774 49.248 23.839a3.98 3.98 0 0 0 5.246-2.09l6.075-14.183a4.02 4.02 0 0 0-2.096-5.263c-15.601-6.8-31.423-14.441-47.46-22.982a4883 4883 0 0 0-46.665-24.54 3.997 3.997 0 0 0-5.39 1.712l-7.092 13.702a4.003 4.003 0 0 0 1.713 5.392m507.1 57.971a3.97 3.97 0 0 0 2.17-5.213l-5.9-14.253a4.025 4.025 0 0 0-5.23-2.178c-31.13 12.626-64.516 22.758-100 29.115-2.174.39-3.64 2.454-3.268 4.632l2.593 15.209a3.975 3.975 0 0 0 4.613 3.255c37.365-6.68 72.442-17.334 105.022-30.567M773.648 85.89a3.975 3.975 0 0 0 4.586-3.292l2.474-15.229a4.025 4.025 0 0 0-3.303-4.605c-32.374-5.524-65.967-14.525-100.701-27.659a4.02 4.02 0 0 0-5.177 2.305l-5.553 14.394a3.98 3.98 0 0 0 2.297 5.16c36.223 13.707 71.38 23.137 105.377 28.926m140.758 4.1a3.974 3.974 0 0 0 3.487-4.44l-1.869-15.314a4.026 4.026 0 0 0-4.456-3.503c-33.004 3.744-67.705 4.14-103.987.232-2.197-.236-4.182 1.334-4.437 3.529l-1.778 15.325a3.976 3.976 0 0 0 3.514 4.42c38.189 4.127 74.748 3.71 109.526-.25M141.782-21.351a4.02 4.02 0 0 0 4.679-3.194l2.882-15.157a3.98 3.98 0 0 0-3.186-4.665c-37.579-6.902-73.093-9.942-106.94-8.844-2.209.072-3.922 1.938-3.828 4.145l.65 15.415c.094 2.207 1.958 3.919 4.166 3.849 31.807-1.013 65.508 1.835 101.577 8.452M10.415-27.66c2.195-.25 3.796-2.21 3.572-4.408l-1.567-15.35c-.224-2.198-2.188-3.8-4.384-3.552-36.685 4.136-71.32 13.527-104.465 28.445-2.014.907-2.884 3.287-1.955 5.291l6.492 13.996c.93 2.004 3.307 2.873 5.322 1.968 30.722-13.798 62.833-22.516 96.984-26.391m1290.775 40.85c10.72-12.132 19.03-22.361 24.78-29.745 3.11-3.992 5.48-7.154 7.08-9.338.8-1.092 1.41-1.94 1.83-2.524q.3-.438.48-.677l.13-.186.03-.054.02-.017v-.009c0-.001 0-.002-9.62-6.683l-2.12-1.473-5.38-3.737-1.78-1.237-.34-.235-.02.024-.08.126c-.09.117-.22.303-.4.554-.36.501-.9 1.264-1.64 2.27a414 414 0 0 1-6.67 8.798c-5.47 7.02-13.44 16.836-23.77 28.524a4.03 4.03 0 0 0 .32 5.658l11.51 10.285a3.984 3.984 0 0 0 5.64-.325m-1030.7 1.009a4.01 4.01 0 0 0 5.116-2.425L280.8-2.755a3.99 3.99 0 0 0-2.422-5.107c-35.691-12.633-69.585-22.751-101.922-30.212a3.98 3.98 0 0 0-4.776 3.014l-3.387 15.052a4.016 4.016 0 0 0 3.021 4.79c31.264 7.22 64.232 17.05 99.175 29.416m-383.661-2.06c1.928-1.08 2.643-3.507 1.586-5.447l-7.385-13.546c-1.057-1.94-3.487-2.657-5.416-1.578-29.883 16.712-58.491 38.132-86.326 64.357a3.977 3.977 0 0 0-.138 5.645l10.661 11.152a4.024 4.024 0 0 0 5.666.138c26.525-24.973 53.489-45.111 81.352-60.721m508.219 52.75c2.013.91 4.384.02 5.298-1.991l6.377-14.049a3.995 3.995 0 0 0-1.991-5.292c-33.962-15.344-66.409-28.971-97.486-40.806a3.99 3.99 0 0 0-5.152 2.325l-5.449 14.434a4.01 4.01 0 0 0 2.326 5.16c30.532 11.628 62.504 25.053 96.077 40.22M1279.77 36.37c1.54-1.59 1.47-4.12-.13-5.645l-11.16-10.647a4.013 4.013 0 0 0-5.66.123c-20.6 21.363-46.82 45.957-78.18 70.215-1.74 1.352-2.08 3.861-.74 5.616l9.37 12.257a3.98 3.98 0 0 0 5.6.74c32.49-25.127 59.62-50.579 80.9-72.659m-763.353 87.136a4.003 4.003 0 0 0 5.383-1.745l7.017-13.74a4 4 0 0 0-1.745-5.38c-32.795-16.705-64.295-32.165-94.598-46.33a3.995 3.995 0 0 0-5.313 1.936l-6.511 13.987a4.004 4.004 0 0 0 1.937 5.317c30.008 14.028 61.249 29.359 93.83 45.955M-215.911 94.14a4.02 4.02 0 0 0-.107-5.665l-11.095-10.722a3.98 3.98 0 0 0-5.646.106c-11.011 11.542-21.922 23.864-32.766 36.972a3.984 3.984 0 0 0 .552 5.623l11.938 9.774a4.016 4.016 0 0 0 5.637-.554c10.462-12.643 20.948-24.481 31.487-35.534m1389.491 33.562a3.97 3.97 0 0 0 .94-5.569l-8.95-12.563c-1.28-1.799-3.78-2.218-5.59-.946-27.05 19.037-57.24 37.263-90.34 52.891a4.02 4.02 0 0 0-1.94 5.325l6.49 13.998c.93 2.004 3.31 2.877 5.3 1.934 34.58-16.315 66.03-35.309 94.09-55.07m-630.03 9.754a4850 4850 0 0 1 46.421 24.413c16.609 8.845 33.028 16.773 49.248 23.839a3.98 3.98 0 0 0 5.246-2.091l6.075-14.182a4.02 4.02 0 0 0-2.096-5.263c-15.601-6.8-31.423-14.442-47.46-22.982a4881 4881 0 0 0-46.665-24.54 3.997 3.997 0 0 0-5.39 1.712l-7.092 13.702a4.003 4.003 0 0 0 1.713 5.392m507.1 57.971a3.97 3.97 0 0 0 2.17-5.213l-5.9-14.253a4.025 4.025 0 0 0-5.23-2.178c-31.13 12.626-64.516 22.758-100 29.115-2.174.389-3.64 2.454-3.268 4.632l2.593 15.209a3.976 3.976 0 0 0 4.613 3.255c37.365-6.679 72.442-17.334 105.022-30.567m-277.002 31.032a3.975 3.975 0 0 0 4.586-3.292l2.474-15.229c.354-2.18-1.126-4.233-3.303-4.605-32.374-5.524-65.967-14.525-100.701-27.659a4.02 4.02 0 0 0-5.177 2.305l-5.553 14.394a3.98 3.98 0 0 0 2.297 5.16c36.223 13.707 71.38 23.137 105.377 28.926m140.758 4.1a3.974 3.974 0 0 0 3.487-4.439l-1.869-15.315a4.026 4.026 0 0 0-4.456-3.503c-33.004 3.744-67.705 4.14-103.987.232a4.026 4.026 0 0 0-4.437 3.529l-1.778 15.325a3.975 3.975 0 0 0 3.514 4.419c38.189 4.128 74.748 3.711 109.526-.248M146.461 116.025c-.412 2.17-2.507 3.593-4.679 3.195-36.069-6.617-69.77-9.465-101.577-8.453-2.208.071-4.072-1.641-4.165-3.848l-.651-15.415c-.094-2.207 1.62-4.074 3.827-4.145 33.848-1.098 69.362 1.942 106.941 8.844a3.98 3.98 0 0 1 3.186 4.665zm-132.474-7.524c.224 2.197-1.377 4.158-3.572 4.407-34.15 3.876-66.262 12.594-96.984 26.392-2.015.905-4.392.036-5.322-1.968l-6.492-13.996c-.93-2.004-.059-4.384 1.955-5.291C-63.283 103.127-28.648 93.736 8.037 89.6c2.196-.248 4.16 1.354 4.384 3.552zm1311.983 15.513c-5.75 7.384-14.06 17.613-24.78 29.744a3.983 3.983 0 0 1-5.64.324l-11.51-10.284a4.03 4.03 0 0 1-.32-5.658c10.33-11.688 18.3-21.504 23.77-28.525 2.96-3.805 5.19-6.787 6.67-8.798.74-1.005 1.28-1.768 1.64-2.27.18-.25.31-.436.4-.553l.08-.126.02-.024.04.027.17.12c.24.168.77.534 1.91 1.324l5.38 3.738 2.12 1.473c9.62 6.681 9.62 6.682 9.62 6.683v.009l-.02.017-.03.054-.13.186-.09.122-.14.203c-.08.104-.16.222-.25.352-.42.585-1.03 1.432-1.83 2.524-1.6 2.184-3.97 5.346-7.08 9.338M275.605 152.342a4.01 4.01 0 0 1-5.116 2.426c-34.943-12.366-67.911-22.196-99.175-29.415a4.017 4.017 0 0 1-3.021-4.792l3.387-15.052a3.98 3.98 0 0 1 4.776-3.014c32.337 7.462 66.231 17.579 101.922 30.213a3.99 3.99 0 0 1 2.422 5.107zm-387.191-5.081c1.057 1.94.342 4.367-1.586 5.447-27.863 15.609-54.827 35.748-81.352 60.721-1.608 1.514-4.139 1.459-5.666-.138l-10.661-11.152a3.98 3.98 0 0 1 .138-5.646c27.835-26.224 56.443-47.644 86.326-64.357 1.929-1.078 4.359-.36 5.416 1.579zm511.931 56.206a4.01 4.01 0 0 1-5.298 1.992c-33.573-15.167-65.545-28.592-96.077-40.22a4.01 4.01 0 0 1-2.326-5.16l5.449-14.434a3.99 3.99 0 0 1 5.152-2.325c31.077 11.835 63.524 25.462 97.486 40.806a3.995 3.995 0 0 1 1.991 5.292zm879.295-32.173c1.6 1.525 1.67 4.054.13 5.645-21.28 22.08-48.41 47.531-80.9 72.658a3.98 3.98 0 0 1-5.6-.739l-9.37-12.257c-1.34-1.755-1-4.264.74-5.616 31.36-24.258 57.58-48.852 78.18-70.215a4.01 4.01 0 0 1 5.66-.123zM521.8 262.33a4.003 4.003 0 0 1-5.383 1.745c-32.581-16.596-63.822-31.927-93.83-45.955a4.004 4.004 0 0 1-1.937-5.317l6.511-13.987a3.995 3.995 0 0 1 5.313-1.936c30.303 14.165 61.803 29.624 94.598 46.33a4 4 0 0 1 1.745 5.38zm-737.818-33.285a4.02 4.02 0 0 1 .107 5.665c-10.539 11.053-21.025 22.891-31.487 35.533a4.016 4.016 0 0 1-5.637.555l-11.938-9.774a3.984 3.984 0 0 1-.552-5.623c10.844-13.109 21.755-25.43 32.766-36.972a3.98 3.98 0 0 1 5.646-.106zm1390.538 33.658a3.97 3.97 0 0 1-.94 5.569c-28.06 19.761-59.51 38.754-94.09 55.07-1.99.943-4.37.07-5.3-1.935l-6.49-13.997a4.02 4.02 0 0 1 1.94-5.325c33.1-15.628 63.29-33.854 90.34-52.891 1.81-1.272 4.31-.854 5.59.945zm-584.549 39.736a4850 4850 0 0 0-46.421-24.413 4.004 4.004 0 0 1-1.713-5.393l7.092-13.701a3.996 3.996 0 0 1 5.39-1.712 4881 4881 0 0 1 46.665 24.54c16.037 8.54 31.859 16.182 47.46 22.982a4.02 4.02 0 0 1 2.096 5.263l-6.075 14.182a3.98 3.98 0 0 1-5.246 2.091c-16.22-7.066-32.639-14.994-49.248-23.839m462.849 28.345a3.97 3.97 0 0 1-2.17 5.213c-32.58 13.233-67.657 23.888-105.022 30.566a3.975 3.975 0 0 1-4.613-3.255l-2.593-15.208c-.372-2.178 1.094-4.243 3.268-4.632 35.484-6.357 68.87-16.489 100-29.115a4.024 4.024 0 0 1 5.23 2.178zm-274.586 32.953c-.354 2.18-2.409 3.663-4.586 3.292-33.997-5.789-69.154-15.219-105.377-28.927a3.98 3.98 0 0 1-2.297-5.159l5.553-14.395c.795-2.061 3.111-3.085 5.177-2.304 34.734 13.134 68.327 22.134 100.701 27.659 2.177.372 3.657 2.425 3.303 4.605zm139.659 2.953c.268 2.192-1.292 4.189-3.487 4.439-34.778 3.959-71.337 4.376-109.526.248a3.976 3.976 0 0 1-3.514-4.419l1.778-15.325a4.026 4.026 0 0 1 4.437-3.529c36.282 3.908 70.983 3.512 103.987-.232a4.026 4.026 0 0 1 4.456 3.503zm-776.111-106.9c2.172.398 4.267-1.025 4.679-3.195l2.882-15.157a3.98 3.98 0 0 0-3.186-4.665c-37.579-6.903-73.093-9.942-106.94-8.844-2.209.071-3.922 1.938-3.828 4.145l.65 15.415c.094 2.207 1.958 3.919 4.166 3.848 31.807-1.012 65.508 1.836 101.577 8.453m-131.367-6.312c2.195-.249 3.796-2.21 3.572-4.408l-1.566-15.348c-.224-2.198-2.188-3.8-4.384-3.552-36.685 4.136-71.32 13.527-104.465 28.445-2.014.906-2.884 3.287-1.955 5.291l6.492 13.996c.93 2.004 3.307 2.872 5.322 1.967 30.722-13.797 62.833-22.515 96.984-26.391m1290.775 40.85c10.72-12.131 19.03-22.36 24.78-29.744 3.11-3.992 5.48-7.154 7.08-9.338.43-.59.81-1.109 1.13-1.553.27-.378.5-.702.7-.971q.3-.438.48-.677l.13-.186.03-.054.02-.018v-.008c0-.001 0-.002-3.06-2.128l-3.51-2.437-3.05-2.118-2.12-1.473-5.38-3.738-1.21-.84-.72-.495-.18-.131-.01-.005-.02.024-.08.126c-.09.117-.22.303-.4.553-.19.266-.43.604-.73 1.013-.12.174-.26.361-.4.56l-.51.697a415 415 0 0 1-6.67 8.798c-5.47 7.021-13.44 16.837-23.77 28.525-1.46 1.655-1.32 4.185.32 5.657l11.51 10.285a3.983 3.983 0 0 0 5.64-.324m-1030.701 1.01a4.01 4.01 0 0 0 5.116-2.426l5.195-14.527a3.99 3.99 0 0 0-2.422-5.107c-35.691-12.634-69.585-22.751-101.922-30.213a3.98 3.98 0 0 0-4.776 3.014l-3.387 15.052a4.017 4.017 0 0 0 3.021 4.792c31.264 7.219 64.232 17.049 99.175 29.415m-383.661-2.06c1.928-1.08 2.643-3.507 1.586-5.447l-7.385-13.546c-1.057-1.94-3.487-2.657-5.416-1.579-29.883 16.713-58.491 38.133-86.326 64.357a3.977 3.977 0 0 0-.138 5.645l10.661 11.153c1.527 1.597 4.058 1.652 5.666.138 26.525-24.973 53.489-45.112 81.352-60.721m508.219 52.751a4.01 4.01 0 0 0 5.298-1.992l6.377-14.049a3.996 3.996 0 0 0-1.991-5.293c-33.962-15.343-66.409-28.971-97.486-40.805a3.99 3.99 0 0 0-5.152 2.324l-5.449 14.434a4.01 4.01 0 0 0 2.326 5.161c30.532 11.628 62.504 25.053 96.077 40.22m884.723-28.52c1.54-1.591 1.47-4.12-.13-5.645l-11.16-10.647a4.01 4.01 0 0 0-5.66.123c-20.6 21.363-46.82 45.957-78.18 70.215-1.74 1.351-2.08 3.861-.74 5.616l9.37 12.257a3.98 3.98 0 0 0 5.6.739c32.49-25.127 59.62-50.578 80.9-72.658m-763.353 87.136a4.003 4.003 0 0 0 5.383-1.745l7.017-13.74a4 4 0 0 0-1.745-5.38c-32.795-16.706-64.295-32.165-94.598-46.33a3.995 3.995 0 0 0-5.313 1.936l-6.511 13.987a4.004 4.004 0 0 0 1.937 5.317c30.008 14.028 61.249 29.359 93.83 45.955m-732.328-29.366a4.02 4.02 0 0 0-.107-5.664l-11.095-10.722a3.98 3.98 0 0 0-5.646.105c-11.011 11.543-21.922 23.864-32.766 36.973a3.984 3.984 0 0 0 .552 5.623l11.938 9.774a4.017 4.017 0 0 0 5.637-.555c10.462-12.642 20.948-24.481 31.487-35.534m1389.491 33.562a3.97 3.97 0 0 0 .94-5.569l-8.95-12.563c-1.28-1.799-3.78-2.217-5.59-.946-27.05 19.038-57.24 37.264-90.34 52.892a4.02 4.02 0 0 0-1.94 5.325l6.49 13.997c.93 2.005 3.31 2.877 5.3 1.935 34.58-16.316 66.03-35.309 94.09-55.071m-630.03 9.755a4872 4872 0 0 1 46.421 24.412c16.609 8.846 33.028 16.774 49.248 23.839a3.98 3.98 0 0 0 5.246-2.09l6.075-14.182a4.02 4.02 0 0 0-2.096-5.263c-15.601-6.8-31.423-14.442-47.46-22.982a4882 4882 0 0 0-46.665-24.541 4 4 0 0 0-5.39 1.713l-7.092 13.701a4.004 4.004 0 0 0 1.713 5.393m507.1 57.971a3.97 3.97 0 0 0 2.17-5.213l-5.9-14.253a4.024 4.024 0 0 0-5.23-2.178c-31.13 12.626-64.516 22.757-100 29.114-2.174.39-3.64 2.455-3.268 4.632l2.593 15.209a3.975 3.975 0 0 0 4.613 3.255c37.365-6.679 72.442-17.333 105.022-30.566m-277.002 31.032a3.977 3.977 0 0 0 4.586-3.292l2.474-15.229a4.024 4.024 0 0 0-3.303-4.605c-32.374-5.525-65.967-14.525-100.701-27.659a4.02 4.02 0 0 0-5.177 2.304l-5.553 14.395a3.98 3.98 0 0 0 2.297 5.159c36.223 13.708 71.38 23.138 105.377 28.927m140.758 4.099a3.974 3.974 0 0 0 3.487-4.439l-1.869-15.314a4.026 4.026 0 0 0-4.456-3.503c-33.004 3.744-67.705 4.14-103.987.232-2.197-.237-4.182 1.334-4.437 3.528l-1.778 15.326a3.976 3.976 0 0 0 3.514 4.419c38.189 4.127 74.748 3.711 109.526-.249M146.461 397.164a4.02 4.02 0 0 1-4.679 3.195c-36.069-6.616-69.77-9.465-101.577-8.452-2.208.07-4.072-1.641-4.165-3.848l-.651-15.415c-.094-2.207 1.62-4.074 3.827-4.146 33.848-1.097 69.362 1.942 106.941 8.845a3.98 3.98 0 0 1 3.186 4.665zM13.987 389.64c.224 2.198-1.377 4.159-3.572 4.408-34.15 3.875-66.262 12.594-96.984 26.391-2.015.905-4.392.037-5.322-1.967l-6.492-13.996c-.93-2.004-.059-4.385 1.955-5.291 33.145-14.918 67.78-24.309 104.465-28.446 2.196-.247 4.16 1.355 4.384 3.553zm1311.983 15.514c-5.75 7.383-14.06 17.613-24.78 29.744a3.983 3.983 0 0 1-5.64.324l-11.51-10.285c-1.64-1.472-1.78-4.002-.32-5.657 10.33-11.688 18.3-21.504 23.77-28.525 2.96-3.805 5.19-6.787 6.67-8.798.32-.442.61-.837.86-1.183q.48-.664.78-1.087l.2-.284c.08-.112.15-.202.2-.27l.08-.125.02-.024 2.12 1.471 5.38 3.738 2.12 1.473c9.62 6.68 9.62 6.682 9.62 6.683v.008l-.02.018-.03.054-.13.186q-.18.238-.48.677c-.42.584-1.03 1.432-1.83 2.524-1.6 2.183-3.97 5.346-7.08 9.338M275.605 433.482a4.01 4.01 0 0 1-5.116 2.425c-34.943-12.365-67.911-22.195-99.175-29.415a4.016 4.016 0 0 1-3.021-4.791l3.387-15.052a3.98 3.98 0 0 1 4.776-3.014c32.337 7.461 66.231 17.579 101.922 30.212a3.99 3.99 0 0 1 2.422 5.108zm-387.191-5.081c1.057 1.94.342 4.367-1.586 5.446-27.863 15.61-54.827 35.749-81.352 60.721a4.023 4.023 0 0 1-5.666-.137l-10.661-11.153a3.977 3.977 0 0 1 .138-5.645c27.835-26.224 56.443-47.644 86.326-64.357 1.929-1.078 4.359-.361 5.416 1.579zm511.931 56.206a4.01 4.01 0 0 1-5.298 1.992c-33.573-15.167-65.545-28.592-96.077-40.221a4.01 4.01 0 0 1-2.326-5.16l5.449-14.434a3.99 3.99 0 0 1 5.152-2.324c31.077 11.834 63.524 25.462 97.486 40.805a3.996 3.996 0 0 1 1.991 5.293zm879.295-32.173c1.6 1.525 1.67 4.054.13 5.645-21.28 22.08-48.41 47.531-80.9 72.658a3.98 3.98 0 0 1-5.6-.739l-9.37-12.257c-1.34-1.755-1-4.265.74-5.616 31.36-24.258 57.58-48.852 78.18-70.216a4.014 4.014 0 0 1 5.66-.123zM521.8 543.47a4.005 4.005 0 0 1-5.383 1.745c-32.581-16.596-63.822-31.928-93.83-45.955a4.004 4.004 0 0 1-1.937-5.317l6.511-13.987a3.995 3.995 0 0 1 5.313-1.936c30.303 14.165 61.803 29.624 94.598 46.33a3.997 3.997 0 0 1 1.745 5.38zm-737.818-33.286a4.02 4.02 0 0 1 .107 5.665c-10.539 11.053-21.025 22.892-31.487 35.534a4.017 4.017 0 0 1-5.637.555l-11.938-9.774a3.984 3.984 0 0 1-.552-5.623c10.844-13.109 21.755-25.43 32.766-36.973a3.98 3.98 0 0 1 5.646-.105zm1390.538 33.658a3.97 3.97 0 0 1-.94 5.569c-28.06 19.762-59.51 38.755-94.09 55.071-1.99.942-4.37.069-5.3-1.935l-6.49-13.998a4.02 4.02 0 0 1 1.94-5.324c33.1-15.628 63.29-33.854 90.34-52.892 1.81-1.271 4.31-.853 5.59.946zm-584.549 39.736a4872 4872 0 0 0-46.421-24.412 4.004 4.004 0 0 1-1.713-5.393l7.092-13.702a4 4 0 0 1 5.39-1.712 4882 4882 0 0 1 46.665 24.541c16.037 8.54 31.859 16.181 47.46 22.981a4.02 4.02 0 0 1 2.096 5.264l-6.075 14.182a3.98 3.98 0 0 1-5.246 2.09c-16.22-7.065-32.639-14.993-49.248-23.839m462.849 28.346a3.97 3.97 0 0 1-2.17 5.213c-32.58 13.232-67.657 23.887-105.022 30.566a3.975 3.975 0 0 1-4.613-3.255l-2.593-15.209c-.372-2.177 1.094-4.242 3.268-4.632 35.484-6.357 68.87-16.488 100-29.114a4.024 4.024 0 0 1 5.23 2.178zm-274.586 32.953a3.975 3.975 0 0 1-4.586 3.291c-33.997-5.789-69.154-15.218-105.377-28.926a3.98 3.98 0 0 1-2.297-5.159l5.553-14.395a4.02 4.02 0 0 1 5.177-2.304c34.734 13.134 68.327 22.134 100.701 27.659a4.024 4.024 0 0 1 3.303 4.605zm139.659 2.952a3.974 3.974 0 0 1-3.487 4.439c-34.778 3.959-71.337 4.376-109.526.248a3.975 3.975 0 0 1-3.514-4.418l1.778-15.326c.255-2.194 2.24-3.765 4.437-3.528 36.282 3.907 70.983 3.511 103.987-.232a4.026 4.026 0 0 1 4.456 3.503zM-6.97 530.235c30.652-4.974 62.9-5.945 97.194-3.061l.838-9.965c-35.008-2.944-68.081-1.965-99.633 3.155zm116.672-1.037c30.291 3.733 62.168 10.321 95.917 19.666l2.669-9.637c-34.14-9.454-66.504-16.151-97.363-19.954zm1189.208 38.695c10.16-11.636 17.92-21.307 23.15-28.083 2.61-3.388 4.59-6.053 5.93-7.879.66-.913 1.17-1.616 1.51-2.095l.39-.548.1-.144.03-.04v-.011l.01-.004v-.001l-4.11-2.852-4.11-2.852v.006l-.02.027-.08.121-.14.198c-.06.086-.13.186-.22.301-.31.447-.8 1.117-1.44 1.996a346 346 0 0 1-5.77 7.668c-5.12 6.632-12.75 16.145-22.77 27.612zm-1415.461.722c28.908-16.207 58.895-27.703 90.479-34.716l-2.168-9.762c-32.558 7.229-63.46 19.081-93.201 35.755zm341.002-14.31c29.466 8.86 60.327 19.72 92.761 32.515l3.669-9.302c-32.647-12.879-63.774-23.836-93.551-32.789zm-433.495 85.525c24.732-24.495 49.869-44.846 75.784-61.248l-5.348-8.449c-26.606 16.839-52.302 37.662-77.473 62.592zm1422.634 11.096a750 750 0 0 0 72.11-68.343l-7.34-6.786c-18.33 19.843-42.2 43.446-71.15 67.428zm-877.953-56.699c28.752 11.767 58.712 24.988 89.998 39.616l4.235-9.059c-31.409-14.685-61.519-27.973-90.445-39.812zm107.91 48.075c28.314 13.501 57.692 28.11 88.219 43.793l4.57-8.895c-30.6-15.721-60.069-30.374-88.485-43.924zm-698.682 48.486c10.753-13.134 21.542-25.439 32.398-36.93l-7.269-6.867c-11.031 11.677-21.976 24.161-32.867 37.462zM1115.82 718.66c30.45-17.23 57.98-36.227 82.37-55.333l-6.16-7.873c-24.06 18.841-51.18 37.55-81.14 54.503zm-566.401-23.443a4935 4935 0 0 1 43.708 23.005c15.067 8.024 29.968 15.282 44.698 21.818l4.055-9.141c-14.505-6.436-29.191-13.589-44.052-21.503a4912 4912 0 0 0-43.798-23.052zm457.231 71.175c32.77-10.262 63.38-23.398 91.67-38.205l-4.64-8.86c-27.82 14.56-57.88 27.456-90.02 37.522zm-350.376-18.504c32.408 13.19 63.951 22.895 94.563 29.58l2.133-9.77c-30.037-6.559-61.033-16.091-92.926-29.073zm233.162 40.424c34.397-2.182 67.125-7.936 98.054-16.324l-2.617-9.652c-30.322 8.224-62.386 13.86-96.07 15.996zm-118.907-6.934c34.277 6.13 67.321 8.496 99.032 7.786l-.224-9.997c-31.054.694-63.433-1.621-97.048-7.633z" fill="url(#c)" fill-rule="evenodd"/>
    <path d="M220.417 158.059c-1.335-17.623 11.869-32.991 29.492-34.325l492.66-37.317c17.623-1.334 32.991 11.87 34.325 29.492l3.203 42.289-556.477 42.149z" fill="#1433D6"/>
    <path d="m779.582 158.236.514-.039-3.203-42.288c-1.335-17.623-16.703-30.827-34.325-29.492l-486.4 36.842L736.426 94.06c16.882-1.157 31.747 11.029 33.923 27.811z" fill="#fff"/>
    <rect fill="#75EEFF" height="24" rx="12" transform="rotate(-4.332 255.793 151.165)" width="24" x="255.793" y="151.165"/>
    <rect fill="#75EEFF" height="24" rx="12" transform="rotate(-4.332 298 148.813)" width="24" x="298" y="148.813"/>
    <rect fill="#75EEFF" height="24" rx="12" transform="rotate(-4.332 340.207 146.463)" width="24" x="340.207" y="146.463"/>
    <path d="m222.207 200.348 556.478-42.15 21.468 283.428c1.334 17.623-11.869 32.991-29.492 34.326l-492.66 37.316c-17.623 1.335-32.991-11.869-34.326-29.492z" fill="#B5F6FF"/>
    <rect fill="#0BE1FF" height="29.076" rx="3.867" transform="matrix(.99696 -.07795 .12473 .99219 313.969 417.103)" width="254.782"/>
    <rect fill="#fff" height="29.076" rx="3.867" transform="matrix(.99696 -.07795 .12473 .99219 305.957 363.328)" width="299.435"/>
    <rect fill="#1433D6" height="29.076" rx="3.867" transform="matrix(.99696 -.07795 .12473 .99219 622 336.342)" width="103.429"/>
    <rect fill="#0BE1FF" height="31.706" rx="3.867" transform="matrix(.99696 -.07795 .12473 .99219 323.996 307.558)" width="299.435"/>
    <rect fill="#1433D6" height="30.299" rx="3.867" transform="matrix(.99696 -.07795 .12473 .99219 168.957 320.462)" width="129.501"/>
    <rect fill="#0069FF" height="27.971" rx="3.867" transform="matrix(.99696 -.07795 .12473 .99219 129.621 260.481)" width="287.429"/>
    <path d="M664.046 166.88C648.68 169.641 638 182.642 638 201.408v144.12c0 25.631 19.922 52.31 44.498 59.589l117.525 34.813-18.358-242.375-99.168-29.375c-3.919-1.161-7.721-1.758-11.342-1.838z" fill="#000C2A"/>
    <rect fill="#1433D6" height="236.937" rx="46.409" transform="matrix(.95882 .28402 0 1 668.582 124.699)" width="236.937"/>
    <path d="M692.09 137.14c5.456-.737 11.455-.213 17.74 1.759l136.952 45.606c23.974 7.524 43.316 33.409 43.74 58.538l4.442 142.653c.044 2.6-.116 5.094-.464 7.47.824-3.288 1.261-6.848 1.261-10.644v-144.12c0-25.631-19.922-52.31-44.497-59.59L713.079 137.88c-7.59-2.248-14.737-2.383-20.989-.74" fill="#fff"/>
    <path d="M743.464 309.446c-16.792-22.488-16.792-50.884 0-63.423l29.213-21.815c.659-.492 1.727-.175 2.385.706l29.213 39.122c16.793 22.488 16.793 50.883 0 63.423s-44.018 4.475-60.811-18.013" fill="#fff"/>
    <g filter="url(#d)">
      <path d="m881.355 167.667-3.825-11.265-3.825-11.265 1.876 11.744 1.876 11.744a22.2 22.2 0 0 1-2.909 15 22.22 22.22 0 0 1-11.9 9.586l-11.264 3.824-11.264 3.823 11.743-1.874 11.743-1.875a22.22 22.22 0 0 1 15.001 2.911 22.24 22.24 0 0 1 9.587 11.902l3.825 11.265 3.825 11.265-1.876-11.744-1.876-11.744a22.2 22.2 0 0 1 2.909-15 22.22 22.22 0 0 1 11.9-9.586l11.264-3.824 11.264-3.823-11.743 1.874-11.743 1.875a22.22 22.22 0 0 1-15.001-2.911 22.24 22.24 0 0 1-9.587-11.902" fill="#fff"/>
    </g>
    <g filter="url(#e)">
      <path d="m936.136 216.062.752-1.106.753-1.107.365 1.325.365 1.324a15.2 15.2 0 0 0 2.241 4.663 14.6 14.6 0 0 0 3.701 3.613l1.137.766 1.138.766-1.294.362-1.293.363a15.1 15.1 0 0 0-4.66 2.227 15.1 15.1 0 0 0-3.627 3.689l-.794 1.156-.794 1.156-.365-1.325-.365-1.325a15.2 15.2 0 0 0-2.241-4.662 14.9 14.9 0 0 0-3.701-3.613l-1.137-.766-1.138-.766 1.338-.382 1.337-.381a14.8 14.8 0 0 0 4.657-2.258 15.1 15.1 0 0 0 3.611-3.702z" fill="#fff"/>
    </g>
    <path d="M1260.15 760.478 973.307-58.197l-14.712-6.41 25.002 705.736z" fill="url(#f)"/>
    <path d="m908.22 604.716 34.177-673.53-42.116-18.351-187.385 607.932z" fill="url(#g)"/>
    <path d="M702.46-176.211 255.019 322.587 81 247.847 624.913-210z" fill="url(#h)"/>
    <path d="m492.163 424.588 308.532-557.996-29.674-12.929-389.726 522.231z" fill="url(#i)"/>
  </g>
  <defs>
    <linearGradient gradientUnits="userSpaceOnUse" id="b" x1="0" x2="673" y1="622.5" y2="-228.5">
      <stop stop-color="#0069FF"/>
      <stop offset="1" stop-color="#0BE1FF"/>
    </linearGradient>
    <linearGradient gradientUnits="userSpaceOnUse" id="f" x1="679.21" x2="608.126" y1="-3.668" y2="135.737">
      <stop stop-color="#fff" stop-opacity="0"/>
      <stop offset=".48" stop-color="#fff" stop-opacity=".2"/>
      <stop offset="1" stop-color="#fff" stop-opacity="0"/>
    </linearGradient>
    <linearGradient gradientUnits="userSpaceOnUse" id="g" x1="679.21" x2="608.126" y1="-3.668" y2="135.737">
      <stop stop-color="#fff" stop-opacity="0"/>
      <stop offset=".48" stop-color="#fff" stop-opacity=".2"/>
      <stop offset="1" stop-color="#fff" stop-opacity="0"/>
    </linearGradient>
    <linearGradient gradientUnits="userSpaceOnUse" id="h" x1="679.21" x2="608.126" y1="-3.668" y2="135.737">
      <stop stop-color="#fff" stop-opacity="0"/>
      <stop offset=".48" stop-color="#fff" stop-opacity=".2"/>
      <stop offset="1" stop-color="#fff" stop-opacity="0"/>
    </linearGradient>
    <linearGradient gradientUnits="userSpaceOnUse" id="i" x1="679.21" x2="608.126" y1="-3.668" y2="135.737">
      <stop stop-color="#fff" stop-opacity="0"/>
      <stop offset=".48" stop-color="#fff" stop-opacity=".2"/>
      <stop offset="1" stop-color="#fff" stop-opacity="0"/>
    </linearGradient>
    <filter color-interpolation-filters="sRGB" filterUnits="userSpaceOnUse" height="103.95" id="d" width="103.943" x="832.804" y="137.82">
      <feFlood flood-opacity="0" result="BackgroundImageFix"/>
      <feColorMatrix in="SourceAlpha" result="hardAlpha" values="0 0 0 0 0 0 0 0 0 0 0 0 0 0 0 0 0 0 127 0"/>
      <feOffset/>
      <feGaussianBlur stdDeviation="3.659"/>
      <feColorMatrix values="0 0 0 0 1 0 0 0 0 1 0 0 0 0 1 0 0 0 0.75 0"/>
      <feBlend in2="BackgroundImageFix" result="effect1_dropShadow_2858_5154"/>
      <feBlend in="SourceGraphic" in2="effect1_dropShadow_2858_5154" result="shape"/>
    </filter>
    <filter color-interpolation-filters="sRGB" filterUnits="userSpaceOnUse" height="36.043" id="e" width="36.04" x="917.863" y="206.533">
      <feFlood flood-opacity="0" result="BackgroundImageFix"/>
      <feColorMatrix in="SourceAlpha" result="hardAlpha" values="0 0 0 0 0 0 0 0 0 0 0 0 0 0 0 0 0 0 127 0"/>
      <feOffset/>
      <feGaussianBlur stdDeviation="3.659"/>
      <feColorMatrix values="0 0 0 0 1 0 0 0 0 1 0 0 0 0 1 0 0 0 0.75 0"/>
      <feBlend in2="BackgroundImageFix" result="effect1_dropShadow_2858_5154"/>
      <feBlend in="SourceGraphic" in2="effect1_dropShadow_2858_5154" result="shape"/>
    </filter>
    <radialGradient cx="0" cy="0" gradientTransform="matrix(-1.29014 313.21634 -544.33438 -2.24211 535.441 296.696)" gradientUnits="userSpaceOnUse" id="c" r="1">
      <stop stop-color="#fff"/>
      <stop offset="1" stop-color="#fff" stop-opacity="0"/>
    </radialGradient>
    <clipPath id="a">
      <path d="M0 0h1056v608H0z" fill="#fff"/>
    </clipPath>
  </defs>
</svg>